<svg xmlns="http://www.w3.org/2000/svg" class="animated" id="freepik_stories-blogging" viewBox="0 0 500 500" version="1.1"><style>@keyframes fadeIn{0%{opacity:0}to{opacity:1}}@keyframes slideDown{0%{opacity:0;transform:translateY(-30px)}to{opacity:1;transform:translateY(0)}}@keyframes slideLeft{0%{opacity:0;transform:translateX(-30px)}to{opacity:1;transform:translateX(0)}}@keyframes floating{0%,to{opacity:1;transform:translateY(0)}50%{transform:translateY(-10px)}}svg#freepik_stories-blogging:not(.animated) .animable{opacity:0}</style><g id="freepik--Floor--inject-78" class="animable" style="transform-origin:249.05px 342.73px;animation:1s 1 forwards cubic-bezier(.36,-.01,.5,1.38) fadeIn;animation-delay:0s"><g id="freepik--floor--inject-78" class="animable" style="transform-origin:249.05px 342.73px"><ellipse id="freepik--floor--inject-78" cx="249.05" cy="342.73" rx="236.48" ry="140.31" style="fill:#ebebeb;transform-origin:249.05px 342.73px" class="animable"/></g></g><g id="freepik--Shadows--inject-78" class="animable" style="transform-origin:245.922px 344.896px"><ellipse cx="316.63" cy="426.23" rx="61.64" ry="35.59" style="opacity:.05;transform-origin:316.63px 426.23px" class="animable" id="freepik--Shadow--inject-78"/><path d="M458.76 308.85c-17.35-7.5-45-7.5-61.77 0S380.22 328.5 397 336s44.42 7.5 61.77 0 17.33-19.65-.01-27.15z" style="opacity:.05;transform-origin:428.094px 322.425px" class="animable" id="freepik--shadow--inject-78"/><path d="m354.43 340.63-103-59.44L295.05 256c2.19-1.27 2.19-3.32 0-4.59l-38.93-22.48a8.83 8.83 0 0 0-8 0L21.72 359.67c-2.2 1.27-2.2 3.33 0 4.59l38.93 22.48a8.77 8.77 0 0 0 7.95 0L88 375.59 191 435z" style="opacity:.05;transform-origin:187.25px 331.486px" class="animable" id="freepik--shadow--inject-78"/></g><g id="freepik--Device--inject-78" class="animable" style="transform-origin:172.04px 194.323px;animation:1s 1 forwards cubic-bezier(.36,-.01,.5,1.38) slideDown;animation-delay:0s"><g id="freepik--device--inject-78" class="animable" style="transform-origin:172.04px 194.323px"><path d="M202.51 341.47 236 322.12c3.45-2 5.18-4.6 5.18-7.21v-4.66l-34.72-19.58a7.35 7.35 0 0 1-3.33-5.77v-41.45l-58.46 33.78v41.45a7.35 7.35 0 0 0 3.33 5.77l29.54 17c6.88 4.01 18.07 4.01 24.97.02z" style="fill:#f44336;transform-origin:192.925px 293.955px" id="el26zy37lypv9" class="animable"/><g style="opacity:.4;transform-origin:192.925px 293.955px" class="animable" id="el1i4wkc3pvn5"><path d="M202.51 341.47 236 322.12c3.45-2 5.18-4.6 5.18-7.21v-4.66l-34.72-19.58a7.35 7.35 0 0 1-3.33-5.77v-41.45l-58.46 33.78v41.45a7.35 7.35 0 0 0 3.33 5.77l29.54 17c6.88 4.01 18.07 4.01 24.97.02z" id="elmltqissv0a" class="animable" style="transform-origin:192.925px 293.955px"/></g><path d="M158.68 326v4.63L148 324.45a7.38 7.38 0 0 1-3.33-5.77v-41.45l11.14-6.42c.23 2.82.48 5.75.71 8.59l-7.81 4.52v32.43a7.31 7.31 0 0 0 3.33 5.77z" style="opacity:.2;transform-origin:151.675px 300.72px" class="animable" id="elifscb4kdoqr"/><path d="M148.68 316.36a7.36 7.36 0 0 0 3.33 5.77l25.5 14.69c6.9 4 18.09 4 25 0L236 317.47c6.9-4 6.9-10.44 0-14.42l-25.52-14.7a7.36 7.36 0 0 1-3.33-5.77v-32.43l-58.46 33.78z" style="fill:#f44336;transform-origin:194.927px 294.985px" id="el8zvkubuxbot" class="animable"/><path d="M148.68 316.36a7.36 7.36 0 0 0 3.33 5.77l25.5 14.69c6.9 4 18.09 4 25 0L236 317.47c6.9-4 6.9-10.44 0-14.42l-25.52-14.7a7.36 7.36 0 0 1-3.33-5.77v-32.43l-58.46 33.78z" style="opacity:.3;transform-origin:194.927px 294.985px" class="animable" id="elmdvdlczogpl"/><path d="m217.26 292.27-6.79-3.92a7.36 7.36 0 0 1-3.33-5.77v-32.43l-58.46 33.78v32.43a7.36 7.36 0 0 0 3.33 5.77l6.67 3.85z" style="opacity:.1;transform-origin:182.97px 288.065px" class="animable" id="elaf146d7xqkc"/><path d="M241.16 310.26v4.65c0 2.62-1.73 5.21-5.18 7.22l-33.47 19.34a25.15 25.15 0 0 1-11.93 3v-4.64a25.15 25.15 0 0 0 11.93-3L236 317.47c3.43-1.98 5.16-4.6 5.16-7.21z" style="fill:#f44336;transform-origin:215.87px 327.365px" id="elbk4iyuxtsnh" class="animable"/><path d="M241.16 310.26v4.65c0 2.62-1.73 5.21-5.18 7.22l-33.47 19.34a25.15 25.15 0 0 1-11.93 3v-4.64a25.15 25.15 0 0 0 11.93-3L236 317.47c3.43-1.98 5.16-4.6 5.16-7.21z" style="opacity:.2;transform-origin:215.87px 327.365px" class="animable" id="elqrmrp5yc9gl"/><path d="M54.82 355.48c2.16 1.24 5.77 2.13 8.07.81L289 225.77c2.3-1.33 4.17-9.36 4.17-12V34.86a8.94 8.94 0 0 0-3.91-7.07 8.94 8.94 0 0 0-8.07.15L55.08 158.46a9.22 9.22 0 0 0-4.17 7.22v182.73a8.94 8.94 0 0 0 3.91 7.07z" style="fill:#455a64;transform-origin:172.04px 191.922px" id="elz293oqwi16c" class="animable"/><path d="M62.3 361a9.05 9.05 0 0 1-7.48-.13c-3.21-1.84-3.91-5.36-3.91-8V337l7.81 4.52v16.84c0 2.39 1.56 3.46 3.58 2.64z" style="fill:#f44336;transform-origin:56.605px 349.373px" id="elq333acaqd" class="animable"/><path d="M62.3 361a9.05 9.05 0 0 1-7.48-.13c-3.21-1.84-3.91-5.36-3.91-8V337l7.81 4.52v16.84c0 2.39 1.56 3.46 3.58 2.64z" style="opacity:.4;transform-origin:56.605px 349.373px" class="animable" id="el7kk7pb5we3n"/><path d="M62.89 356.28 289 225.76c2.3-1.33 4.17-9.35 4.17-12V34.85c0-2.65-1.87-3.73-4.17-2.4L62.89 163a9.2 9.2 0 0 0-4.17 7.21v182.71c.01 2.65 1.87 4.69 4.17 3.36z" style="fill:#37474f;transform-origin:175.945px 194.289px" id="el5xp5hzhzb4q" class="animable"/><path d="M58.72 341.48v16.84c0 2.65 1.87 3.73 4.17 2.4L289 230.2a9.22 9.22 0 0 0 4.17-7.21v-16.88z" style="fill:#f44336;transform-origin:175.945px 283.7px" id="elizwj00ymv2" class="animable"/><path d="M58.72 341.48v16.84c0 2.65 1.87 3.73 4.17 2.4L289 230.2a9.22 9.22 0 0 0 4.17-7.21v-16.88z" style="opacity:.3;transform-origin:175.945px 283.7px" class="animable" id="elu1nlkwp2b7"/><path d="M66.54 320.59V172.77a5.51 5.51 0 0 1 2.5-4.32L282.81 45c1.38-.79 2.5-.15 2.5 1.45v147.83a5.51 5.51 0 0 1-2.5 4.33L69 322c-1.34.83-2.46.18-2.46-1.41z" style="fill:#f44336;transform-origin:175.925px 183.512px" id="el84aycpl6nr4" class="animable"/><path d="M66.54 320.59V172.77a5.51 5.51 0 0 1 2.5-4.32L282.81 45c1.38-.79 2.5-.15 2.5 1.45v147.83a5.51 5.51 0 0 1-2.5 4.33L69 322c-1.34.83-2.46.18-2.46-1.41z" style="fill:#f44336;transform-origin:175.925px 183.512px" id="elutqxe5m070m" class="animable"/><path d="M66.54 320.59V172.77a5.51 5.51 0 0 1 2.5-4.32L282.81 45c1.38-.79 2.5-.15 2.5 1.45v147.83a5.51 5.51 0 0 1-2.5 4.33L69 322c-1.34.83-2.46.18-2.46-1.41z" style="fill:#fff;opacity:.5;transform-origin:175.925px 183.512px" class="animable" id="el9xvwnsi9fy"/><path d="M175.92 279.8a7.62 7.62 0 0 0-3.44 6c0 2.19 1.54 3.09 3.44 2a7.6 7.6 0 0 0 3.45-6c0-2.21-1.54-3.1-3.45-2z" style="fill:#455a64;transform-origin:175.925px 283.796px" id="el98hvsid416k" class="animable"/><path d="M60 166.06a8.86 8.86 0 0 0-1.23 4.12v171.3L50.91 337V165.68a8.63 8.63 0 0 1 1.23-4.12z" style="fill:#263238;transform-origin:55.455px 251.52px" id="elj00vcvfxejm" class="animable"/><path style="fill:#ebebeb;transform-origin:169.74px 196.17px" id="elp7t1nq82dc" class="animable" d="M251.42 83.49 91.88 175.61v133.23l-.53.31-.94.54-2.35 1.36V173.41L247.6 81.29l2.91 1.68.91.52z"/><path style="fill:#f0f0f0;transform-origin:171.65px 196.165px" id="elfpsnb7efx16" class="animable" d="M251.42 83.49v133.25L97.6 305.54l-3.81 2.2-.95.55-.94.53-.02.02V175.61l159.54-92.12z"/><path style="fill:#fafafa;transform-origin:169.74px 128.45px" id="elib9fc32krih" class="animable" d="m247.6 81.29 3.82 2.21-159.54 92.11-3.82-2.21L247.6 81.29z"/><path style="fill:#f44336;transform-origin:171.6px 195.94px" id="el9xuqf2renn" class="animable" d="m252.79 82.73-1.37.79-159.54 92.11-.53.31v133.21l-.94.54V175.4l.55-.32 159.55-92.11 1.35-.78.93.54z"/><path style="opacity:.1;transform-origin:171.6px 195.94px" class="animable" d="m252.79 82.73-1.37.79-159.54 92.11-.53.31v133.21l-.94.54V175.4l.55-.32 159.55-92.11 1.35-.78.93.54z" id="el7k49jv7env6"/><path d="M251.42 83.52 91.88 175.63l-.53.31v133.2l.53-.31.94-.53 1-.55 3.81-2.2 153.82-88.81 1.37-.78V82.73z" style="fill:#f44336;transform-origin:172.085px 195.935px" id="elld0yvxkyezo" class="animable"/><path d="M251.42 83.52 91.88 175.63l-.53.31v133.2l.53-.31.94-.53 1-.55 3.81-2.2 153.82-88.81 1.37-.78V82.73z" style="opacity:.05;transform-origin:172.085px 195.935px" class="animable" id="el2it4ofrxxl8"/><path style="fill:#f44336;transform-origin:171.6px 129.065px" id="elmxu1kp2148" class="animable" d="m251.86 82.19.93.54-161.45 93.21-.93-.54 161.45-93.21z"/><path style="fill:#fff;opacity:.4;transform-origin:171.6px 129.065px" class="animable" d="m251.86 82.19.93.54-161.45 93.21-.93-.54 161.45-93.21z" id="eleiaiezeeo1"/><path style="fill:#f44336;transform-origin:173.09px 195.935px" id="elrabtp9xxc5" class="animable" d="m254.28 83.59-1.49.86-1.37.8-46.61 26.91L92.84 176.8v131.49l-.94.53V176.26l159.52-92.09 1.37-.79.57-.33.92.54z"/><path style="opacity:.1;transform-origin:173.09px 195.935px" class="animable" d="m254.28 83.59-1.49.86-1.37.8-46.61 26.91L92.84 176.8v131.49l-.94.53V176.26l159.52-92.09 1.37-.79.57-.33.92.54z" id="eldpzufvubs0g"/><path d="m252.79 84.45-1.37.8-46.61 26.91-112 64.65v131.48l1-.55 3.81-2.2 153.82-88.81 1.37-.78 1.49-.86V83.59z" style="fill:#f44336;transform-origin:173.555px 195.94px" id="ela7fxonr0zbs" class="animable"/><path style="fill:#f44336;transform-origin:173.1px 129.93px" id="ele8raubef6ls" class="animable" d="m253.35 83.05.94.54-161.45 93.22-.93-.55 161.44-93.21z"/><path style="fill:#fff;opacity:.4;transform-origin:173.1px 129.93px" class="animable" d="m253.35 83.05.94.54-161.45 93.22-.93-.55 161.44-93.21z" id="el6kop35nejgl"/><path style="fill:#ebebeb;transform-origin:175.47px 196.175px" id="el8sn8c9sd2kb" class="animable" d="m257.15 86.81-2.87 1.66-1.49.86-1.37.78-153.82 88.8v126.63l-3.81 2.2V176.71l157.63-91 1.37-.8.54-.3.95.55 2.87 1.65z"/><path style="fill:#fafafa;transform-origin:175.465px 131.755px" id="elvukxs31edvo" class="animable" d="m253.32 84.6 3.82 2.2-159.53 92.11-3.82-2.2L253.32 84.6z"/><path style="fill:#e0e0e0;transform-origin:177.38px 196.165px" id="ellr04zs4skva" class="animable" d="M97.61 178.91v126.61l159.54-92.11-.01-126.6-159.53 92.1z"/></g></g><g id="freepik--Notebook--inject-78" class="animable" style="transform-origin:220.925px 254.581px;animation:2s 1 forwards cubic-bezier(.36,-.01,.5,1.38) slideLeft;animation-delay:0s"><g id="freepik--notebook--inject-78" class="animable" style="transform-origin:220.925px 254.581px"><path d="m268.46 181.87-11.31-95.06L97.6 178.92l11.64 95.86a247.91 247.91 0 0 0 81.24 155.3l.51.46 159.55-92.11a247.89 247.89 0 0 1-82.08-156.56z" style="fill:#f5f5f5;transform-origin:224.07px 258.675px" id="elem0xj4nea8s" class="animable"/><path d="M105.28 179.55c1.1-.63 2-.12 2 1.15a4.41 4.41 0 0 1-2 3.46c-1.11.64-2 .12-2-1.15a4.41 4.41 0 0 1 2-3.46z" style="fill:#37474f;transform-origin:105.28px 181.857px" id="elqaqmqbqdsdb" class="animable"/><path d="M99.66 163.64c-2.17-1.26-4.25-1.44-5.86-.51s-2.49 2.82-2.49 5.33a12.24 12.24 0 0 0 .35 2.83l1.33-.77a10.51 10.51 0 0 1-.21-2.06c0-2 .63-3.4 1.76-4.06s2.68-.47 4.38.51a15.2 15.2 0 0 1 6.88 11.91 6.24 6.24 0 0 1-.56 2.76 3.14 3.14 0 0 1-1.19 1.3l-.12.06a4.18 4.18 0 0 0-.63 1.73 4.21 4.21 0 0 0 1.48-.52 4.68 4.68 0 0 0 2.07-2.61 8.14 8.14 0 0 0 .42-2.72 16.84 16.84 0 0 0-7.61-13.18z" style="fill:#f44336;transform-origin:99.2906px 172.607px" id="el0q1emrc815rq" class="animable"/><path d="M115 174c1.1-.64 2-.12 2 1.15a4.43 4.43 0 0 1-2 3.46c-1.11.63-2 .12-2-1.16a4.39 4.39 0 0 1 2-3.45z" style="fill:#37474f;transform-origin:115px 176.303px" id="el78br8jbbpd" class="animable"/><path d="M109.35 158c-2.17-1.25-4.25-1.43-5.86-.5s-2.49 2.82-2.49 5.33a12.16 12.16 0 0 0 .35 2.82l1.33-.77a10.41 10.41 0 0 1-.21-2c0-2 .63-3.41 1.76-4.06s2.68-.47 4.38.51a15.19 15.19 0 0 1 6.88 11.91 6 6 0 0 1-.56 2.75 3.2 3.2 0 0 1-1.19 1.3l-.12.07a4.13 4.13 0 0 0-.63 1.73 4.21 4.21 0 0 0 1.48-.52 4.7 4.7 0 0 0 2.07-2.62 8.12 8.12 0 0 0 .42-2.71 16.84 16.84 0 0 0-7.61-13.24z" style="fill:#f44336;transform-origin:108.981px 167.001px" id="el9fc8iios048" class="animable"/><path d="M124.66 168.36c1.1-.63 2-.12 2 1.15a4.41 4.41 0 0 1-2 3.46c-1.11.64-2 .12-2-1.15a4.41 4.41 0 0 1 2-3.46z" style="fill:#37474f;transform-origin:124.66px 170.667px" id="elcjhue9lc4b" class="animable"/><path d="M119 152.45c-2.17-1.26-4.25-1.44-5.86-.51s-2.49 2.82-2.49 5.33a12.24 12.24 0 0 0 .35 2.83l1.33-.77a10.51 10.51 0 0 1-.21-2.06c0-2 .63-3.4 1.76-4.06s2.68-.47 4.38.51a15.2 15.2 0 0 1 6.88 11.91 6.08 6.08 0 0 1-.56 2.76 3.2 3.2 0 0 1-1.19 1.3l-.12.06a4.33 4.33 0 0 0-.63 1.73 4 4 0 0 0 1.48-.52 4.71 4.71 0 0 0 2.07-2.61 8.14 8.14 0 0 0 .42-2.72 16.84 16.84 0 0 0-7.61-13.18z" style="fill:#f44336;transform-origin:118.631px 161.417px" id="elyrvhvwz64w" class="animable"/><path d="M134.35 162.77c1.1-.64 2-.12 2 1.15a4.43 4.43 0 0 1-2 3.46c-1.1.63-2 .12-2-1.16a4.4 4.4 0 0 1 2-3.45z" style="fill:#37474f;transform-origin:134.35px 165.073px" id="el6a9kuaxpohh" class="animable"/><path d="M128.73 146.85c-2.17-1.25-4.25-1.43-5.86-.5s-2.49 2.82-2.49 5.33a12.16 12.16 0 0 0 .35 2.82l1.33-.77a10.41 10.41 0 0 1-.21-2c0-2 .63-3.41 1.76-4.06s2.69-.47 4.38.51a15.19 15.19 0 0 1 6.88 11.82 6 6 0 0 1-.56 2.75 3.2 3.2 0 0 1-1.19 1.3l-.12.07a4.27 4.27 0 0 0-.63 1.73 4.21 4.21 0 0 0 1.48-.52 4.7 4.7 0 0 0 2.07-2.62 8.12 8.12 0 0 0 .42-2.71 16.84 16.84 0 0 0-7.61-13.15z" style="fill:#f44336;transform-origin:128.361px 155.806px" id="elgovy9pmqexf" class="animable"/><path d="M144 157.17c1.1-.63 2-.12 2 1.15a4.41 4.41 0 0 1-2 3.46c-1.1.64-2 .12-2-1.15a4.44 4.44 0 0 1 2-3.46z" style="fill:#37474f;transform-origin:144px 159.477px" id="eln1n4wo35pt" class="animable"/><path d="M138.42 141.26c-2.17-1.26-4.25-1.44-5.86-.51s-2.49 2.82-2.49 5.33a12.24 12.24 0 0 0 .35 2.83l1.33-.77a10.49 10.49 0 0 1-.2-2.06c0-2 .62-3.4 1.75-4.06s2.69-.47 4.39.51a15.22 15.22 0 0 1 6.87 11.91 6.08 6.08 0 0 1-.56 2.76 3.2 3.2 0 0 1-1.19 1.3l-.12.06a4.48 4.48 0 0 0-.63 1.73 4 4 0 0 0 1.48-.52 4.71 4.71 0 0 0 2.07-2.61 8.14 8.14 0 0 0 .42-2.72 16.84 16.84 0 0 0-7.61-13.18z" style="fill:#f44336;transform-origin:138.051px 150.227px" id="el08fm3e2ju154" class="animable"/><path d="M153.73 151.58c1.1-.64 2-.12 2 1.15a4.43 4.43 0 0 1-2 3.46c-1.1.63-2 .12-2-1.16a4.4 4.4 0 0 1 2-3.45z" style="fill:#37474f;transform-origin:153.73px 153.883px" id="elvsztx7iwouo" class="animable"/><path d="M148.11 135.66c-2.17-1.25-4.25-1.43-5.86-.5s-2.49 2.82-2.49 5.32a12.74 12.74 0 0 0 .35 2.83l1.33-.77a10.42 10.42 0 0 1-.2-2.06c0-2 .62-3.4 1.75-4s2.69-.47 4.39.51a15.2 15.2 0 0 1 6.87 11.91 6.06 6.06 0 0 1-.56 2.75 3.2 3.2 0 0 1-1.19 1.3l-.12.07a4.43 4.43 0 0 0-.63 1.73 4.34 4.34 0 0 0 1.49-.52 4.69 4.69 0 0 0 2.06-2.62 8.11 8.11 0 0 0 .43-2.71 16.85 16.85 0 0 0-7.62-13.24z" style="fill:#f44336;transform-origin:147.745px 144.661px" id="elso7ugc5ur8s" class="animable"/><path d="M163.42 146c1.1-.63 2-.12 2 1.15a4.41 4.41 0 0 1-2 3.46c-1.1.64-2 .12-2-1.15a4.44 4.44 0 0 1 2-3.46z" style="fill:#37474f;transform-origin:163.42px 148.307px" id="elvfiwz3z4nz" class="animable"/><path d="M157.8 130.07c-2.17-1.26-4.25-1.44-5.86-.51s-2.49 2.82-2.49 5.33a12.81 12.81 0 0 0 .35 2.83l1.33-.77a11.31 11.31 0 0 1-.2-2.06c0-2 .62-3.4 1.75-4.06s2.69-.47 4.39.51a15.22 15.22 0 0 1 6.87 11.91 6.08 6.08 0 0 1-.56 2.76 3.2 3.2 0 0 1-1.19 1.3l-.12.06a4.43 4.43 0 0 0-.63 1.73 4.14 4.14 0 0 0 1.49-.52A4.7 4.7 0 0 0 165 146a8.13 8.13 0 0 0 .43-2.72 16.85 16.85 0 0 0-7.63-13.21z" style="fill:#f44336;transform-origin:157.44px 139.037px" id="elnmusv7oh7oe" class="animable"/><path d="M173.11 140.39c1.1-.64 2-.12 2 1.15a4.43 4.43 0 0 1-2 3.46c-1.1.63-2 .12-2-1.16a4.4 4.4 0 0 1 2-3.45z" style="fill:#37474f;transform-origin:173.11px 142.693px" id="el2dmh8nnv2ji" class="animable"/><path d="M167.49 124.47c-2.17-1.25-4.25-1.43-5.86-.5s-2.49 2.81-2.49 5.32a12.74 12.74 0 0 0 .35 2.83l1.33-.77a11.22 11.22 0 0 1-.2-2.06c0-2 .62-3.4 1.75-4s2.69-.47 4.39.51a15.2 15.2 0 0 1 6.87 11.91 6.06 6.06 0 0 1-.56 2.75 3.07 3.07 0 0 1-1.19 1.3l-.12.07a4.43 4.43 0 0 0-.63 1.73 4.34 4.34 0 0 0 1.49-.52 4.72 4.72 0 0 0 2.06-2.62 8.11 8.11 0 0 0 .43-2.71 16.85 16.85 0 0 0-7.62-13.24z" style="fill:#f44336;transform-origin:167.125px 133.471px" id="elo86gazppq1" class="animable"/><path d="M182.8 134.79c1.1-.63 2-.12 2 1.15a4.41 4.41 0 0 1-2 3.46c-1.1.64-2 .12-2-1.15a4.44 4.44 0 0 1 2-3.46z" style="fill:#37474f;transform-origin:182.8px 137.097px" id="el7a8e0x3kkb2" class="animable"/><path d="M177.18 118.88c-2.17-1.26-4.25-1.44-5.86-.51s-2.49 2.82-2.49 5.33a12.81 12.81 0 0 0 .35 2.83l1.33-.77a11.31 11.31 0 0 1-.2-2.06c0-2 .62-3.4 1.75-4.06s2.69-.47 4.39.51a15.22 15.22 0 0 1 6.87 11.91 6 6 0 0 1-.56 2.75 3.16 3.16 0 0 1-1.19 1.31l-.12.06a4.43 4.43 0 0 0-.63 1.73 4.14 4.14 0 0 0 1.49-.52 4.7 4.7 0 0 0 2.06-2.61 8.13 8.13 0 0 0 .43-2.72 16.85 16.85 0 0 0-7.62-13.18z" style="fill:#f44336;transform-origin:176.815px 127.847px" id="elr31w4wpf1er" class="animable"/><path d="M192.49 129.2c1.1-.64 2-.12 2 1.15a4.43 4.43 0 0 1-2 3.46c-1.1.63-2 .12-2-1.16a4.39 4.39 0 0 1 2-3.45z" style="fill:#37474f;transform-origin:192.49px 131.503px" id="elpfyjjfxo5mg" class="animable"/><path d="M186.87 113.28c-2.17-1.25-4.25-1.43-5.86-.5s-2.49 2.81-2.49 5.32a12.74 12.74 0 0 0 .35 2.83l1.33-.77a11.22 11.22 0 0 1-.2-2.06c0-2 .62-3.4 1.75-4s2.69-.47 4.39.51a15.2 15.2 0 0 1 6.86 11.86 6.06 6.06 0 0 1-.56 2.75 3.2 3.2 0 0 1-1.19 1.3l-.12.07a4.43 4.43 0 0 0-.63 1.73 4.34 4.34 0 0 0 1.49-.52 4.75 4.75 0 0 0 2.07-2.62 8.38 8.38 0 0 0 .42-2.71 16.85 16.85 0 0 0-7.61-13.19z" style="fill:#f44336;transform-origin:186.5px 122.256px" id="elqj257067i2l" class="animable"/><path d="M202.18 123.6c1.1-.63 2-.12 2 1.15a4.41 4.41 0 0 1-2 3.46c-1.1.64-2 .12-2-1.15a4.43 4.43 0 0 1 2-3.46z" style="fill:#37474f;transform-origin:202.18px 125.907px" id="el2k70s94qkhn" class="animable"/><path d="M196.56 107.69c-2.17-1.26-4.25-1.44-5.85-.51s-2.5 2.82-2.5 5.33a12.81 12.81 0 0 0 .35 2.83l1.33-.77a11.31 11.31 0 0 1-.2-2.06c0-2 .62-3.4 1.75-4.06s2.69-.47 4.39.51a15.22 15.22 0 0 1 6.87 11.91 6 6 0 0 1-.56 2.75 3.1 3.1 0 0 1-1.19 1.31l-.12.06a4.43 4.43 0 0 0-.63 1.73 4.34 4.34 0 0 0 1.49-.52 4.71 4.71 0 0 0 2.07-2.61 8.14 8.14 0 0 0 .42-2.72 16.85 16.85 0 0 0-7.62-13.18z" style="fill:#f44336;transform-origin:196.196px 116.657px" id="elh5gc48yl8rk" class="animable"/><path d="M211.86 118c1.1-.64 2-.12 2 1.15a4.43 4.43 0 0 1-2 3.46c-1.1.63-2 .12-2-1.15a4.41 4.41 0 0 1 2-3.46z" style="fill:#37474f;transform-origin:211.86px 120.303px" id="elk0lkhzhl5k7" class="animable"/><path d="M206.24 102.09c-2.17-1.25-4.25-1.43-5.86-.5s-2.49 2.82-2.49 5.33a12.88 12.88 0 0 0 .35 2.83l1.33-.77a11.31 11.31 0 0 1-.2-2.06c0-2 .62-3.41 1.75-4.06s2.69-.47 4.39.51a15.22 15.22 0 0 1 6.87 11.91 6 6 0 0 1-.56 2.75 3.14 3.14 0 0 1-1.19 1.3l-.12.07a4.43 4.43 0 0 0-.63 1.73 4.34 4.34 0 0 0 1.49-.52 4.75 4.75 0 0 0 2.07-2.62 8.34 8.34 0 0 0 .42-2.71 16.87 16.87 0 0 0-7.62-13.19z" style="fill:#f44336;transform-origin:205.875px 111.066px" id="elh8dvcf8pd9p" class="animable"/><path d="M221.55 112.41c1.1-.63 2-.12 2 1.16a4.39 4.39 0 0 1-2 3.45c-1.1.64-2 .12-2-1.15a4.43 4.43 0 0 1 2-3.46z" style="fill:#37474f;transform-origin:221.55px 114.717px" id="elbqocrox8hap" class="animable"/><path d="M215.93 96.5c-2.17-1.25-4.25-1.44-5.85-.51s-2.49 2.82-2.49 5.33a12.71 12.71 0 0 0 .34 2.83l1.33-.77a11.31 11.31 0 0 1-.2-2.06c0-2 .62-3.4 1.75-4.06s2.69-.47 4.39.52a15.2 15.2 0 0 1 6.87 11.91 6.06 6.06 0 0 1-.56 2.75 3.07 3.07 0 0 1-1.19 1.3l-.12.06a4.47 4.47 0 0 0-.63 1.74 4.56 4.56 0 0 0 1.49-.52 4.74 4.74 0 0 0 2.07-2.62 8.12 8.12 0 0 0 .42-2.71 16.85 16.85 0 0 0-7.62-13.19z" style="fill:#f44336;transform-origin:215.57px 105.473px" id="elaww4zb9wxwn" class="animable"/><path d="M231.24 106.82c1.1-.64 2-.12 2 1.15a4.44 4.44 0 0 1-2 3.46c-1.1.63-2 .12-2-1.15a4.41 4.41 0 0 1 2-3.46z" style="fill:#37474f;transform-origin:231.24px 109.123px" id="elfw49da9xvkb" class="animable"/><path d="M225.63 90.9c-2.18-1.25-4.26-1.43-5.86-.5s-2.49 2.82-2.49 5.33a12.85 12.85 0 0 0 .34 2.83l1.34-.78a10.41 10.41 0 0 1-.21-2c0-2 .62-3.41 1.75-4.06s2.69-.47 4.39.51a15.23 15.23 0 0 1 6.88 11.91 6.17 6.17 0 0 1-.56 2.75 3.22 3.22 0 0 1-1.2 1.3l-.12.07a4.25 4.25 0 0 0-.62 1.73 4.36 4.36 0 0 0 1.48-.52 4.75 4.75 0 0 0 2.07-2.62 8.34 8.34 0 0 0 .42-2.71 16.87 16.87 0 0 0-7.61-13.24z" style="fill:#f44336;transform-origin:225.26px 99.9013px" id="elxcnedyv44j" class="animable"/><path d="M240.93 101.22c1.1-.63 2-.12 2 1.16a4.4 4.4 0 0 1-2 3.45c-1.1.64-2 .12-2-1.15a4.43 4.43 0 0 1 2-3.46z" style="fill:#37474f;transform-origin:240.93px 103.527px" id="el6ygm1igk5og" class="animable"/><path d="M235.32 85.31c-2.17-1.25-4.26-1.44-5.86-.51S227 87.62 227 90.13a12.71 12.71 0 0 0 .34 2.83l1.34-.77a10.51 10.51 0 0 1-.21-2.06c0-2 .62-3.4 1.75-4.06s2.69-.47 4.39.52a15.21 15.21 0 0 1 6.88 11.91 6.2 6.2 0 0 1-.56 2.75 3.29 3.29 0 0 1-1.2 1.3l-.12.06a4.3 4.3 0 0 0-.62 1.74 4.58 4.58 0 0 0 1.48-.52 4.74 4.74 0 0 0 2.07-2.62 8.38 8.38 0 0 0 .42-2.71 16.84 16.84 0 0 0-7.64-13.19z" style="fill:#f44336;transform-origin:234.98px 94.2832px" id="el7kgk8tkt2hw" class="animable"/><path d="M250.62 95.63c1.1-.64 2-.12 2 1.15a4.44 4.44 0 0 1-2 3.46c-1.1.63-2 .12-2-1.15a4.41 4.41 0 0 1 2-3.46z" style="fill:#37474f;transform-origin:250.62px 97.9328px" id="ela4gke7521o6" class="animable"/><path d="M245 79.71c-2.17-1.25-4.26-1.43-5.86-.5s-2.49 2.82-2.49 5.33a12.31 12.31 0 0 0 .35 2.83l1.33-.78a10.41 10.41 0 0 1-.21-2c0-2 .62-3.41 1.75-4.06s2.69-.47 4.39.51a15.23 15.23 0 0 1 6.88 11.91 6.17 6.17 0 0 1-.56 2.75 3.16 3.16 0 0 1-1.2 1.3l-.12.07a4.25 4.25 0 0 0-.62 1.73 4.36 4.36 0 0 0 1.48-.52 4.7 4.7 0 0 0 2.07-2.62 8.08 8.08 0 0 0 .42-2.71A16.84 16.84 0 0 0 245 79.71z" style="fill:#f44336;transform-origin:244.631px 88.7113px" id="elg1mjxlfp0q6" class="animable"/><path d="M245 79.71c-2.17-1.25-4.26-1.43-5.86-.5s-2.49 2.82-2.49 5.33a11.26 11.26 0 0 0 .16 1.81 13 13 0 0 0-1.5-1c-2.18-1.25-4.26-1.44-5.86-.51S227 87.62 227 90.13a11.49 11.49 0 0 0 .16 1.82 12 12 0 0 0-1.5-1c-2.18-1.25-4.26-1.43-5.86-.5s-2.49 2.82-2.49 5.33a11.26 11.26 0 0 0 .16 1.81 12.31 12.31 0 0 0-1.51-1c-2.17-1.25-4.25-1.44-5.85-.51s-2.49 2.82-2.49 5.33a11.49 11.49 0 0 0 .16 1.82 11.38 11.38 0 0 0-1.51-1c-2.17-1.25-4.25-1.43-5.86-.5s-2.49 2.82-2.49 5.33a11.28 11.28 0 0 0 .17 1.8 11.12 11.12 0 0 0-1.5-1c-2.17-1.26-4.25-1.44-5.85-.51s-2.5 2.82-2.5 5.33a11.29 11.29 0 0 0 .17 1.81 12.31 12.31 0 0 0-1.51-1c-2.17-1.25-4.25-1.43-5.86-.5s-2.49 2.81-2.49 5.32a11.52 11.52 0 0 0 .17 1.82 10.43 10.43 0 0 0-1.51-1c-2.17-1.26-4.25-1.44-5.86-.51s-2.49 2.82-2.49 5.33a11.29 11.29 0 0 0 .17 1.81 12.31 12.31 0 0 0-1.51-1c-2.17-1.25-4.25-1.43-5.86-.5s-2.49 2.81-2.49 5.32a11.42 11.42 0 0 0 .17 1.82 11.29 11.29 0 0 0-1.51-1c-2.17-1.26-4.25-1.44-5.86-.51s-2.49 2.82-2.49 5.33a11.29 11.29 0 0 0 .17 1.81 12.31 12.31 0 0 0-1.51-1c-2.17-1.25-4.25-1.43-5.86-.5s-2.49 2.82-2.49 5.32a11.42 11.42 0 0 0 .17 1.82 11.29 11.29 0 0 0-1.51-1c-2.17-1.26-4.25-1.44-5.86-.51s-2.49 2.82-2.49 5.33a11.29 11.29 0 0 0 .17 1.81 12.31 12.31 0 0 0-1.51-1c-2.17-1.25-4.25-1.43-5.86-.5s-2.49 2.82-2.49 5.33a11.4 11.4 0 0 0 .17 1.81 11.29 11.29 0 0 0-1.51-1c-2.17-1.26-4.25-1.44-5.86-.51s-2.49 2.82-2.49 5.33a11.29 11.29 0 0 0 .17 1.81 12.31 12.31 0 0 0-1.51-1c-2.17-1.25-4.25-1.43-5.86-.5s-2.49 2.82-2.49 5.33a11.4 11.4 0 0 0 .17 1.81 11.29 11.29 0 0 0-1.51-1c-2.17-1.26-4.25-1.44-5.86-.51s-2.49 2.82-2.49 5.33a12.24 12.24 0 0 0 .35 2.83l1.33-.77a10.51 10.51 0 0 1-.21-2.06c0-2 .63-3.4 1.76-4.06s2.68-.47 4.38.51a15.2 15.2 0 0 1 6.88 11.91 6.24 6.24 0 0 1-.56 2.76 3.14 3.14 0 0 1-1.19 1.3l-.12.06a4.18 4.18 0 0 0-.63 1.73 4.21 4.21 0 0 0 1.48-.52 4.68 4.68 0 0 0 2.07-2.61 8.14 8.14 0 0 0 .42-2.72c0-3.93-2.24-8.56-5.33-11.47l.74-.43a10.41 10.41 0 0 1-.21-2c0-2 .63-3.41 1.76-4.06s2.68-.47 4.38.51a15.19 15.19 0 0 1 6.88 11.91 6 6 0 0 1-.56 2.75 3.2 3.2 0 0 1-1.19 1.3l-.12.07a4.13 4.13 0 0 0-.63 1.73 4.21 4.21 0 0 0 1.48-.52 4.7 4.7 0 0 0 2.07-2.62 8.12 8.12 0 0 0 .42-2.71c0-3.93-2.24-8.57-5.33-11.47l.74-.43a10.51 10.51 0 0 1-.21-2.06c0-2 .63-3.4 1.76-4.06s2.68-.47 4.38.51a15.2 15.2 0 0 1 6.88 11.91 6.08 6.08 0 0 1-.56 2.76 3.2 3.2 0 0 1-1.19 1.3l-.12.06a4.27 4.27 0 0 0-.63 1.73 4 4 0 0 0 1.48-.52 4.71 4.71 0 0 0 2.07-2.61 8.14 8.14 0 0 0 .42-2.72c0-3.93-2.24-8.56-5.33-11.47l.74-.43a10.41 10.41 0 0 1-.21-2c0-2 .63-3.41 1.76-4.06s2.69-.47 4.38.51a15.19 15.19 0 0 1 6.85 11.2 6 6 0 0 1-.56 2.75 3.2 3.2 0 0 1-1.19 1.3l-.12.07a4.27 4.27 0 0 0-.63 1.73 4.21 4.21 0 0 0 1.48-.52 4.7 4.7 0 0 0 2.07-2.62 8.12 8.12 0 0 0 .42-2.71c0-3.93-2.24-8.57-5.33-11.47l.74-.43a10.49 10.49 0 0 1-.2-2.06c0-2 .62-3.4 1.75-4.06s2.69-.47 4.38.51a15.2 15.2 0 0 1 6.88 11.91 6.08 6.08 0 0 1-.56 2.76 3.2 3.2 0 0 1-1.19 1.3l-.12.06a4.43 4.43 0 0 0-.63 1.73 4.14 4.14 0 0 0 1.49-.52 4.74 4.74 0 0 0 2.06-2.61 8.13 8.13 0 0 0 .43-2.72c0-3.93-2.25-8.56-5.34-11.47l.74-.43a10.42 10.42 0 0 1-.2-2.06c0-2 .62-3.4 1.75-4s2.69-.47 4.39.51a15.2 15.2 0 0 1 6.87 11.91 6.06 6.06 0 0 1-.56 2.75 3.2 3.2 0 0 1-1.19 1.3l-.12.07a4.43 4.43 0 0 0-.63 1.73 4.34 4.34 0 0 0 1.49-.52 4.69 4.69 0 0 0 2.06-2.62 8.11 8.11 0 0 0 .43-2.71c0-3.93-2.25-8.57-5.34-11.47l.74-.43a11.31 11.31 0 0 1-.2-2.06c0-2 .62-3.4 1.75-4.06s2.69-.47 4.39.51a15.22 15.22 0 0 1 6.87 11.91 6.08 6.08 0 0 1-.56 2.76 3.2 3.2 0 0 1-1.19 1.3l-.12.06a4.43 4.43 0 0 0-.63 1.73 4.14 4.14 0 0 0 1.49-.52A4.7 4.7 0 0 0 165 146a8.13 8.13 0 0 0 .43-2.72c0-3.93-2.25-8.56-5.34-11.47l.74-.43a11.22 11.22 0 0 1-.2-2.06c0-2 .62-3.4 1.75-4s2.69-.47 4.39.51a15.2 15.2 0 0 1 6.87 11.91 6.06 6.06 0 0 1-.56 2.75 3.07 3.07 0 0 1-1.19 1.3l-.12.07a4.43 4.43 0 0 0-.63 1.73 4.34 4.34 0 0 0 1.49-.52 4.72 4.72 0 0 0 2.06-2.62 8.11 8.11 0 0 0 .43-2.71c0-3.93-2.25-8.57-5.34-11.47l.74-.43a11.31 11.31 0 0 1-.2-2.06c0-2 .62-3.4 1.75-4.06s2.69-.47 4.39.51a15.22 15.22 0 0 1 6.87 11.91 6 6 0 0 1-.56 2.75 3.16 3.16 0 0 1-1.19 1.31l-.12.06a4.43 4.43 0 0 0-.63 1.73 4.14 4.14 0 0 0 1.49-.52 4.7 4.7 0 0 0 2.06-2.61 8.13 8.13 0 0 0 .43-2.72c0-3.93-2.25-8.56-5.34-11.47l.74-.43a11.22 11.22 0 0 1-.2-2.06c0-2 .62-3.4 1.75-4s2.69-.47 4.39.51a15.2 15.2 0 0 1 6.85 11.78 6.06 6.06 0 0 1-.56 2.75 3.2 3.2 0 0 1-1.19 1.3l-.12.07a4.43 4.43 0 0 0-.63 1.73 4.34 4.34 0 0 0 1.49-.52 4.75 4.75 0 0 0 2.07-2.62 8.38 8.38 0 0 0 .42-2.71c0-3.93-2.25-8.57-5.34-11.47l.74-.43a11.31 11.31 0 0 1-.2-2.06c0-2 .62-3.4 1.75-4.06s2.69-.47 4.39.51a15.22 15.22 0 0 1 6.87 11.91 6 6 0 0 1-.56 2.75 3.1 3.1 0 0 1-1.19 1.31l-.12.06a4.43 4.43 0 0 0-.63 1.73 4.34 4.34 0 0 0 1.49-.52 4.71 4.71 0 0 0 2.07-2.61 8.14 8.14 0 0 0 .42-2.72c0-3.93-2.25-8.57-5.34-11.47l.73-.42a11.31 11.31 0 0 1-.2-2.06c0-2 .62-3.41 1.75-4.06s2.69-.47 4.39.51a15.22 15.22 0 0 1 6.87 11.91 6 6 0 0 1-.56 2.75 3.14 3.14 0 0 1-1.19 1.3l-.12.07a4.43 4.43 0 0 0-.63 1.73 4.34 4.34 0 0 0 1.49-.52 4.75 4.75 0 0 0 2.07-2.62 8.34 8.34 0 0 0 .42-2.71c0-3.93-2.25-8.57-5.34-11.47l.74-.43a11.31 11.31 0 0 1-.2-2.06c0-2 .62-3.4 1.75-4.06s2.69-.47 4.39.52a15.2 15.2 0 0 1 6.87 11.91 6.06 6.06 0 0 1-.56 2.75 3.07 3.07 0 0 1-1.19 1.3l-.12.06a4.47 4.47 0 0 0-.63 1.74 4.56 4.56 0 0 0 1.49-.52 4.74 4.74 0 0 0 2.07-2.62 8.12 8.12 0 0 0 .42-2.71c0-3.94-2.25-8.57-5.34-11.47l.75-.44a10.41 10.41 0 0 1-.21-2c0-2 .62-3.41 1.75-4.06s2.69-.47 4.39.51a15.23 15.23 0 0 1 6.88 11.91 6.17 6.17 0 0 1-.56 2.75 3.22 3.22 0 0 1-1.2 1.3l-.12.07a4.25 4.25 0 0 0-.62 1.73 4.36 4.36 0 0 0 1.48-.52 4.75 4.75 0 0 0 2.07-2.62 8.34 8.34 0 0 0 .42-2.71c0-3.93-2.25-8.57-5.34-11.47l.75-.43a10.51 10.51 0 0 1-.21-2.06c0-2 .62-3.4 1.75-4.06s2.69-.47 4.39.52a15.21 15.21 0 0 1 6.88 11.91 6.2 6.2 0 0 1-.56 2.75 3.29 3.29 0 0 1-1.2 1.3l-.12.06a4.3 4.3 0 0 0-.62 1.74 4.58 4.58 0 0 0 1.48-.52 4.74 4.74 0 0 0 2.07-2.62 8.38 8.38 0 0 0 .42-2.71c0-3.94-2.25-8.57-5.34-11.48l.75-.43a10.41 10.41 0 0 1-.21-2c0-2 .62-3.41 1.75-4.06s2.69-.47 4.39.51A15.23 15.23 0 0 1 251.14 93a6.17 6.17 0 0 1-.56 2.75 3.16 3.16 0 0 1-1.2 1.3l-.12.07a4.25 4.25 0 0 0-.62 1.73 4.36 4.36 0 0 0 1.48-.52 4.7 4.7 0 0 0 2.07-2.62 8.08 8.08 0 0 0 .42-2.71A16.84 16.84 0 0 0 245 79.71z" style="opacity:.4;transform-origin:171.976px 130.931px" class="animable" id="elr2qvlu2rnq"/><path d="m114.22 191.54 131.28-75.79c2.29-1.32 4.4-.27 4.71 2.36l2.18 18a7.87 7.87 0 0 1-3.58 7.15l-131.23 75.68c-2.29 1.32-4.41.26-4.73-2.36l-2.2-17.89a7.84 7.84 0 0 1 3.57-7.15z" style="fill:#f44336;transform-origin:181.519px 167.344px" id="el95b2qybwl9s" class="animable"/><path d="m125.93 205.81-1.73 1.36-2.39-11.59-.53 11.56 1.23-.41-.08 1.23L119 210l.08-1.24 1.13-.94.54-12.15-1.15.3.08-1.19 3.56-2.05 2.13 10.62 2.37-13.22 3.53-2-.08 1.24-1 .86.27 11.72 1.21-.42-.08 1.23-4.06 2.24.08-1.23 1.13-.93-.24-11.4z" style="fill:#fafafa;transform-origin:125.335px 199.065px" id="el2rf2u5gdjc6" class="animable"/><path d="M133.81 206.24c-.77.44-1.29.13-1.29-.78a2.87 2.87 0 0 1 1.17-2.49l.18.59c.13.41.27.75.61.55s.55-.82.77-1.69l.57-2.19-.36.21c-.55.32-.91.12-1.25-.53a15.19 15.19 0 0 1-.74-5.71v-1.61c0-.45-.1-.54-.3-.42a3.7 3.7 0 0 0-.7.68l-.22-1a6.68 6.68 0 0 1 1.74-1.68c.94-.54 1.23.12 1.23 1.24v1.6a17 17 0 0 0 .51 5c.16.52.34.5.53.39h.06l1.47-6.35c.29-1.24.14-1.45-.32-1.44H137a2.76 2.76 0 0 1 1.07-2.72c.68-.39 1.12 0 1.12 1.18a25.19 25.19 0 0 1-.92 5.08l-1.74 7c-.63 2.36-1.22 4.22-2.72 5.09z" style="fill:#fafafa;transform-origin:135.72px 197.091px" id="elokb77wk4hr" class="animable"/><path d="m144.45 194.55.35-14.15-1.1.19.08-1.19 2.42-1.4.22.1-.17 7.1-.41 5.21h.11l.51-3.21c.52-3.29 1.1-4.89 2.42-5.65 1.48-.86 2.14.6 2.14 3.39 0 4.41-1.45 7.66-3.6 8.9a5.05 5.05 0 0 1-2.97.71zm2.45-5-.52 3a1.18 1.18 0 0 0 1-.19c1.28-.74 1.77-3.65 1.77-6.21 0-1.3 0-2.9-.63-2.54s-.93 1.91-1.62 5.93z" style="fill:#fafafa;transform-origin:147.36px 186.282px" id="el93pjtjt3ljg" class="animable"/><path d="m152.32 175.62.11-1.21 2.47-1.41.22.11-.3 13.93c0 .58.05.86.36.68a2.67 2.67 0 0 0 .72-.89l.32.84a6 6 0 0 1-1.83 2.15c-.85.5-1.33.08-1.29-1.45l.34-12.94z" style="fill:#fafafa;transform-origin:154.27px 181.51px" id="elwe6onikrp1" class="animable"/><path d="M160.54 174.81c2.07-1.2 3 .46 3 3.61s-1 6.67-3.41 8.07c-1.95 1.12-3-.34-3-3.54s.87-6.68 3.41-8.14zm1.17 4.65c0-2.3-.22-3.8-1.25-3.21-1.27.73-1.47 3.28-1.47 5.65s.28 3.67 1.27 3.1c1.21-.7 1.45-3 1.45-5.54z" style="fill:#fafafa;transform-origin:160.335px 180.641px" id="elzuod35mxtc" class="animable"/><path d="m169.89 175-.29 1.76c-.59 3.56-1.1 4.91-2.3 5.6-1.56.9-2.24-.82-2.24-3.34 0-4 1.31-7.55 3.32-8.71a3.32 3.32 0 0 1 1.69-.47l.92-1.06.55-.1-.22 9.37c-.09 3.56-1.42 7.4-4.14 9-1.09.63-2.23.61-2.23-.93a2.57 2.57 0 0 1 1-2.2.74.74 0 0 1 .91.07l-.13.62c-.22 1.06-.07 1.4.65 1 1.43-.82 2.19-3.16 2.36-6.5l.22-4.09zm-.65-.72.47-2.83a1.15 1.15 0 0 0-1 .17c-1.29.74-1.8 3.47-1.8 6.37 0 1.88.08 2.83.69 2.48s.89-1.62 1.64-6.22z" style="fill:#fafafa;transform-origin:168.242px 178.059px" id="elk7prua0zrrd" class="animable"/><path d="M245.61 129.88v.21a5.49 5.49 0 0 1-2.51 5l-61.72 35.6a2.05 2.05 0 0 1-3.28-1.69v-.18a5.52 5.52 0 0 1 2.5-5l61.73-35.63a2.05 2.05 0 0 1 3.28 1.69z" style="fill:#fafafa;transform-origin:211.855px 149.44px" id="elgo5w2yno4d" class="animable"/><path d="m238 138.05 5.12-3a5.49 5.49 0 0 0 2.51-5v-.21a2.05 2.05 0 0 0-3.3-1.66l-5.12 3z" style="fill:#455a64;transform-origin:241.427px 132.902px" id="elpdviaqbjkr" class="animable"/><path d="M144.34 212.61a3.87 3.87 0 0 1-1.8 3.51L116.8 231a1.45 1.45 0 0 1-2.35-1.12 3.85 3.85 0 0 1 1.79-3.51L142 211.49a1.44 1.44 0 0 1 2.34 1.12z" style="fill:#455a64;opacity:.4;transform-origin:129.394px 221.244px" class="animable" id="eln0y7kr64j6"/><path d="M204.12 178.1a3.88 3.88 0 0 1-1.8 3.51l-50.67 29.25a1.45 1.45 0 0 1-2.35-1.12 3.87 3.87 0 0 1 1.8-3.51L201.77 177a1.45 1.45 0 0 1 2.35 1.1z" style="fill:#455a64;opacity:.4;transform-origin:176.71px 193.93px" class="animable" id="el3h2gttlgdcv"/><path d="m252.12 152.86-40.69 23.49a1.45 1.45 0 0 1-2.35-1.12 3.87 3.87 0 0 1 1.8-3.51l40.71-23.51a1.44 1.44 0 0 1 2.34 1.13 3.9 3.9 0 0 1-1.81 3.52z" style="fill:#455a64;opacity:.4;transform-origin:231.505px 162.279px" class="animable" id="elzr2ilmicmz"/><path d="M135.79 229.42a3.87 3.87 0 0 1-1.8 3.51L118.2 242a1.49 1.49 0 0 1-2.42-1.08 3.74 3.74 0 0 1 1.73-3.48l15.92-9.18a1.45 1.45 0 0 1 2.36 1.16z" style="fill:#455a64;opacity:.4;transform-origin:125.782px 235.133px" class="animable" id="el2sylyx0e2gh"/><path d="M185.54 200.69a3.88 3.88 0 0 1-1.79 3.51l-40.65 23.47a1.44 1.44 0 0 1-2.35-1.12 3.88 3.88 0 0 1 1.79-3.51l40.64-23.46a1.45 1.45 0 0 1 2.36 1.11z" style="fill:#455a64;opacity:.4;transform-origin:163.145px 213.626px" class="animable" id="elvn3uh3drifl"/><path d="m253.52 163.92-60.66 35a1.45 1.45 0 0 1-2.36-1.13 3.89 3.89 0 0 1 1.8-3.51l60.56-35a1.49 1.49 0 0 1 2.41 1.09 3.74 3.74 0 0 1-1.75 3.55z" style="fill:#455a64;opacity:.4;transform-origin:222.891px 179.101px" class="animable" id="eltj4ou05g2no"/><path d="M157 228.81a3.88 3.88 0 0 1-1.8 3.52l-35.59 20.55a1.54 1.54 0 0 1-2.48-1 3.53 3.53 0 0 1 1.66-3.43l35.86-20.71a1.45 1.45 0 0 1 2.35 1.07z" style="fill:#455a64;opacity:.4;transform-origin:137.056px 240.318px" class="animable" id="eljskwqz9zbrj"/><path d="M221.66 191.45a3.86 3.86 0 0 1-1.79 3.52l-55 31.74a1.45 1.45 0 0 1-2.35-1.12 3.89 3.89 0 0 1 1.8-3.52l55-31.74a1.45 1.45 0 0 1 2.34 1.12z" style="fill:#455a64;opacity:.4;transform-origin:192.091px 208.524px" class="animable" id="elkbq9cmpyoao"/><path d="m254.88 174.76-25.9 15a1.45 1.45 0 0 1-2.36-1.12 3.9 3.9 0 0 1 1.8-3.52l25.67-14.82a1.54 1.54 0 0 1 2.47 1.06 3.58 3.58 0 0 1-1.68 3.4z" style="fill:#455a64;opacity:.4;transform-origin:241.595px 180.031px" class="animable" id="eltdbkvkhgqp"/><path d="M178.16 228a3.85 3.85 0 0 1-1.79 3.51l-55.47 32a1.59 1.59 0 0 1-2.54-1 3.4 3.4 0 0 1 1.6-3.41l55.84-32.24a1.45 1.45 0 0 1 2.36 1.14z" style="fill:#455a64;opacity:.4;transform-origin:148.245px 245.19px" class="animable" id="elmwziolrml28"/><path d="M208 210.75a3.86 3.86 0 0 1-1.79 3.51l-20.76 12a1.44 1.44 0 0 1-2.35-1.12 3.86 3.86 0 0 1 1.79-3.51l20.75-12a1.45 1.45 0 0 1 2.36 1.12z" style="fill:#455a64;opacity:.4;transform-origin:195.55px 217.946px" class="animable" id="eli3dy52qp0gc"/><path d="M256.22 185.4 216 208.64a1.45 1.45 0 0 1-2.35-1.12 3.87 3.87 0 0 1 1.79-3.52l39.9-23a1.58 1.58 0 0 1 2.53 1 3.44 3.44 0 0 1-1.65 3.4z" style="fill:#455a64;opacity:.4;transform-origin:235.77px 194.81px" class="animable" id="el9ge5mzjzcj"/><path d="M129.78 268a3.78 3.78 0 0 1-1.75 3.5l-5.59 3.23a1.66 1.66 0 0 1-2.62-1 3.26 3.26 0 0 1 1.53-3.37l6-3.49a1.48 1.48 0 0 1 2.43 1.13z" style="fill:#455a64;opacity:.4;transform-origin:124.781px 270.792px" class="animable" id="el3k73rdrb49o"/><path d="M157 252.34a3.76 3.76 0 0 1-1.74 3.49l-18 10.4a1.48 1.48 0 0 1-2.41-1.09 3.76 3.76 0 0 1 1.75-3.49l18-10.41a1.47 1.47 0 0 1 2.4 1.1z" style="fill:#455a64;opacity:.4;transform-origin:145.925px 258.734px" class="animable" id="elbxfd47fhkk5"/><path d="M194.33 230.76a3.68 3.68 0 0 1-1.71 3.47l-28.26 16.31a1.49 1.49 0 0 1-2.41-1.09 3.76 3.76 0 0 1 1.75-3.45l28.21-16.28a1.5 1.5 0 0 1 2.42 1.04z" style="fill:#455a64;opacity:.4;transform-origin:178.144px 240.13px" class="animable" id="elq02lh3i3v19"/><path d="M146.52 271.34a3.52 3.52 0 0 1-1.65 3.43l-20.37 11.76a1.71 1.71 0 0 1-2.68-.93 3.11 3.11 0 0 1 1.47-3.32l20.74-12a1.55 1.55 0 0 1 2.49 1.06z" style="fill:#455a64;opacity:.4;transform-origin:134.15px 278.414px" class="animable" id="el5200zxfm4k6"/><path d="M176.39 254.1a3.5 3.5 0 0 1-1.64 3.42l-12.7 7.33-7.87 4.54a1.56 1.56 0 0 1-2.51-1 3.53 3.53 0 0 1 1.66-3.43l20.57-11.88a1.55 1.55 0 0 1 2.49 1.02z" style="fill:#455a64;opacity:.4;transform-origin:164.031px 261.239px" class="animable" id="elz97hq5drtd"/><path d="M196.35 242.57a3.52 3.52 0 0 1-1.64 3.43l-10.66 6.15a1.56 1.56 0 0 1-2.5-1 3.51 3.51 0 0 1 1.66-3.43l10.66-6.15a1.54 1.54 0 0 1 2.48 1z" style="fill:#455a64;opacity:.4;transform-origin:188.95px 246.859px" class="animable" id="elgbo8namwt79"/><path d="M164.08 274a3.29 3.29 0 0 1-1.54 3.38L127 297.91a1.79 1.79 0 0 1-2.75-.89 3 3 0 0 1 1.4-3.29l35.81-20.68a1.63 1.63 0 0 1 2.62.95z" style="fill:#455a64;opacity:.4;transform-origin:144.148px 285.47px" class="animable" id="elp6fl08vu0k"/><path d="M198.74 254a3.34 3.34 0 0 1-1.56 3.39l-25.55 14.75a1.64 1.64 0 0 1-2.6-1 3.32 3.32 0 0 1 1.56-3.39L196.17 253a1.62 1.62 0 0 1 2.57 1z" style="fill:#455a64;opacity:.4;transform-origin:183.884px 262.572px" class="animable" id="el5qdk95cw5ok"/><path d="M147.08 296.55a3.1 3.1 0 0 1-1.45 3.32l-15.63 9a1.84 1.84 0 0 1-2.8-.86 2.84 2.84 0 0 1 1.34-3.25l15.86-9.16a1.72 1.72 0 0 1 2.68.95z" style="fill:#455a64;opacity:.4;transform-origin:137.121px 302.241px" class="animable" id="elkov1skjb5sk"/><path d="m175.52 282.61-20.78 12a1.74 1.74 0 0 1-2.71-.92 3.12 3.12 0 0 1 1.47-3.33l20.8-12a1.71 1.71 0 0 1 2.67.93 3.09 3.09 0 0 1-1.45 3.32z" style="fill:#455a64;opacity:.4;transform-origin:164.502px 286.488px" class="animable" id="eloiyanjcw8nn"/><path d="M201.54 265.11a3.13 3.13 0 0 1-1.46 3.33l-15.46 8.92a1.73 1.73 0 0 1-2.7-.92 3.12 3.12 0 0 1 1.47-3.33l15.49-8.94a1.7 1.7 0 0 1 2.66.94z" style="fill:#455a64;opacity:.4;transform-origin:191.73px 270.769px" class="animable" id="elsc9tcp4g6h"/><path d="M170.38 295.64a2.91 2.91 0 0 1-1.37 3.27l-35.62 20.57a1.93 1.93 0 0 1-2.88-.83 2.74 2.74 0 0 1 1.28-3.22l35.81-20.67a1.81 1.81 0 0 1 2.78.88z" style="fill:#455a64;opacity:.4;transform-origin:150.43px 307.12px" class="animable" id="elg8j4ubqv3z"/><path d="M204.87 275.72a2.86 2.86 0 0 1-1.33 3.25l-25.43 14.68a1.82 1.82 0 0 1-2.78-.87 2.9 2.9 0 0 1 1.37-3.27l25.39-14.66a1.82 1.82 0 0 1 2.78.87z" style="fill:#455a64;opacity:.4;transform-origin:190.104px 284.25px" class="animable" id="elml53t9slm4i"/><path d="M194 294.35a2.76 2.76 0 0 1-1.29 3.22l-55.6 32.1a2 2 0 0 1-2.93-.78 2.61 2.61 0 0 1 1.21-3.18l55.75-32.19a1.9 1.9 0 0 1 2.86.83z" style="fill:#f44336;transform-origin:164.074px 311.594px" id="elc3dzxal0yr" class="animable"/><path d="M233.89 271.34a2.74 2.74 0 0 1-1.28 3.22l-31.15 18a1.92 1.92 0 0 1-2.87-.83 2.74 2.74 0 0 1 1.28-3.22l31.16-18a1.9 1.9 0 0 1 2.86.83z" style="fill:#455a64;opacity:.4;transform-origin:216.24px 281.532px" class="animable" id="elezsiy9px89"/><path d="m272.47 251.55-31.15 18a1.92 1.92 0 0 1-2.87-.82 2.74 2.74 0 0 1 1.28-3.22l31-17.92a2 2 0 0 1 2.92.79 2.64 2.64 0 0 1-1.18 3.17z" style="fill:#455a64;opacity:.4;transform-origin:256.061px 258.573px" class="animable" id="elbcsmtyo5ras"/><path d="M158.21 327.24a2.61 2.61 0 0 1-1.2 3.17l-15.72 9.08a2.08 2.08 0 0 1-3-.75 2.5 2.5 0 0 1 1.14-3.14l15.85-9.15a2 2 0 0 1 2.93.79z" style="fill:#455a64;opacity:.4;transform-origin:148.236px 332.974px" class="animable" id="el0kpoq4wo663d"/><path d="M213.05 295.58a2.63 2.63 0 0 1-1.22 3.18l-45.61 26.34a2 2 0 0 1-3-.78 2.63 2.63 0 0 1 1.22-3.18l45.65-26.35a2 2 0 0 1 2.96.79z" style="fill:#455a64;opacity:.4;transform-origin:188.135px 309.957px" class="animable" id="el35xm6wrfzrl"/><path d="M255.51 271.07a2.63 2.63 0 0 1-1.22 3.18L221 293.45a2 2 0 0 1-2.94-.79 2.66 2.66 0 0 1 1.23-3.19l33.26-19.2a2 2 0 0 1 2.96.8z" style="fill:#455a64;opacity:.4;transform-origin:236.788px 281.856px" class="animable" id="el59kv5o6hust"/><path d="m276.61 261.37-13.1 7.56a2 2 0 0 1-2.95-.77 2.66 2.66 0 0 1 1.23-3.19l13-7.5a2.06 2.06 0 0 1 3 .75 2.54 2.54 0 0 1-1.18 3.15z" style="fill:#455a64;opacity:.4;transform-origin:269.187px 263.199px" class="animable" id="elanmv9ip2pl"/><path d="M182.61 325.19a2.48 2.48 0 0 1-1.12 3.13l-35.74 20.62a2.16 2.16 0 0 1-3.06-.71 2.4 2.4 0 0 1 1.08-3.1l35.81-20.67a2.11 2.11 0 0 1 3.03.73z" style="fill:#455a64;opacity:.4;transform-origin:162.64px 336.699px" class="animable" id="eleyasnh1n4lp"/><path d="M232.48 296.4a2.48 2.48 0 0 1-1.12 3.13l-40.75 23.52a2.12 2.12 0 0 1-3-.73 2.45 2.45 0 0 1 1.12-3.12l40.75-23.53a2.12 2.12 0 0 1 3 .73z" style="fill:#455a64;opacity:.4;transform-origin:210.043px 309.36px" class="animable" id="elcityvzyx1hi"/><path d="m281.07 270.82-40.6 23.44a2.11 2.11 0 0 1-3-.73 2.46 2.46 0 0 1 1.12-3.13l40.53-23.4a2.14 2.14 0 0 1 3.05.72 2.42 2.42 0 0 1-1.1 3.1z" style="fill:#455a64;opacity:.4;transform-origin:259.822px 280.623px" class="animable" id="el7zztdnsokqw"/><path d="M157.41 351.58a2.37 2.37 0 0 1-1 3.09l-5.88 3.33a2.26 2.26 0 0 1-3.13-.67 2.31 2.31 0 0 1 1-3.07l5.89-3.4a2.22 2.22 0 0 1 3.12.72z" style="fill:#455a64;opacity:.4;transform-origin:152.399px 354.432px" class="animable" id="eljoi5f8yvep"/><path d="M207.19 322.84a2.34 2.34 0 0 1-1.05 3.08l-40.6 23.45a2.22 2.22 0 0 1-3.1-.69 2.35 2.35 0 0 1 1.05-3.09l40.6-23.44a2.21 2.21 0 0 1 3.1.69z" style="fill:#455a64;opacity:.4;transform-origin:184.815px 335.758px" class="animable" id="elx4cyrxlkrlb"/><path d="M257 294.07a2.34 2.34 0 0 1-1.05 3.08l-40.66 23.48a2.21 2.21 0 0 1-3.1-.69 2.35 2.35 0 0 1 1.05-3.09l40.66-23.48a2.21 2.21 0 0 1 3.1.7z" style="fill:#455a64;opacity:.4;transform-origin:234.595px 307.001px" class="animable" id="elixxp6ol1lg"/><path d="m285.85 279.91-20.68 11.94a2.22 2.22 0 0 1-3.1-.69 2.37 2.37 0 0 1 1.05-3.09l20.65-11.91a2.23 2.23 0 0 1 3.11.68 2.31 2.31 0 0 1-1.03 3.07z" style="fill:#455a64;opacity:.4;transform-origin:274.483px 284.003px" class="animable" id="el3vixfwawv4q"/><path d="M182.31 348.87a2.24 2.24 0 0 1-1 3l-25.74 14.86a2.35 2.35 0 0 1-3.19-.63 2.21 2.21 0 0 1 .95-3l25.79-14.89a2.32 2.32 0 0 1 3.19.66z" style="fill:#455a64;opacity:.4;transform-origin:167.335px 357.469px" class="animable" id="elk9zngh9naah"/><path d="M232.17 320.08a2.26 2.26 0 0 1-1 3.05l-40.57 23.43a2.3 2.3 0 0 1-3.16-.65 2.27 2.27 0 0 1 1-3.05L229 319.44a2.32 2.32 0 0 1 3.17.64z" style="fill:#455a64;opacity:.4;transform-origin:209.807px 333px" class="animable" id="elq2m6ub6duq"/><path d="m290.91 288.65-50.45 29.13a2.29 2.29 0 0 1-3.16-.66 2.26 2.26 0 0 1 1-3.05L288.7 285a2.34 2.34 0 0 1 3.18.64 2.23 2.23 0 0 1-.97 3.01z" style="fill:#455a64;opacity:.4;transform-origin:264.59px 301.392px" class="animable" id="elkvbnkuiir1b"/><path d="M207.52 345.79a2.15 2.15 0 0 1-.91 3l-45.69 26.38a2.46 2.46 0 0 1-3.26-.6 2.12 2.12 0 0 1 .88-3l45.73-26.4a2.43 2.43 0 0 1 3.25.62z" style="fill:#455a64;opacity:.4;transform-origin:182.58px 360.17px" class="animable" id="elzcaj437in8a"/><path d="M257.3 317.05a2.16 2.16 0 0 1-.91 3l-40.57 23.42a2.42 2.42 0 0 1-3.24-.61 2.14 2.14 0 0 1 .9-3l40.58-23.42a2.42 2.42 0 0 1 3.24.61z" style="fill:#455a64;opacity:.4;transform-origin:234.935px 329.955px" class="animable" id="el3mc27gav47g"/><path d="m296.24 297.05-30.64 17.68a2.41 2.41 0 0 1-3.23-.61 2.15 2.15 0 0 1 .91-3l30.61-17.67a2.43 2.43 0 0 1 3.25.61 2.14 2.14 0 0 1-.9 2.99z" style="fill:#455a64;opacity:.4;transform-origin:279.756px 304.089px" class="animable" id="elg2g5nbwb1n5"/><path d="M271.14 241.51 211.34 276c-.3-.78-.57-1.57-.85-2.35-.08-.22-.16-.45-.23-.67l-.81-2.37c-.27-.8-.53-1.59-.78-2.4-4.12-12.93-7.11-27.06-9.5-43l59.73-34.46a250.82 250.82 0 0 0 8.17 38.25c.37 1.24.74 2.46 1.13 3.67.32 1 .64 2 1 3.05q.93 2.94 1.94 5.79z" style="fill:#f44336;transform-origin:235.155px 233.375px" id="ely2zlfzvlm7" class="animable"/><path d="M271.14 241.51 211.34 276c-.3-.78-.57-1.57-.85-2.35-.08-.22-.16-.45-.23-.67l-.81-2.37c-.27-.8-.53-1.59-.78-2.4-4.12-12.93-7.11-27.06-9.5-43l59.73-34.46a250.82 250.82 0 0 0 8.17 38.25c.37 1.24.74 2.46 1.13 3.67.32 1 .64 2 1 3.05q.93 2.94 1.94 5.79z" style="opacity:.5;transform-origin:235.155px 233.375px" class="animable" id="elhkf2f6kp3bc"/><path d="M271.14 241.51 211.34 276c-.3-.78-.57-1.57-.85-2.35-.08-.22-.16-.45-.23-.67l-.81-2.37c-.27-.8-.53-1.59-.78-2.4 2.23-9.3 9.84-40.21 9.84-40.21l33.42 18.83-6.82-6.83 5.39-17.52 16.57 6.52q.56 1.85 1.11 3.66c.33 1 .65 2 1 3.05q.95 2.95 1.96 5.8z" style="fill:#f44336;transform-origin:239.905px 249.24px" id="eli1vkcs5i4xk" class="animable"/><path d="M238.64 209.83c2.22-1.29 4.43 0 5 2.94s-.67 6.28-2.89 7.56-4.57 0-5.16-2.91.83-6.3 3.05-7.59z" style="fill:#f44336;transform-origin:239.617px 215.078px" id="el87hovt5uyu7" class="animable"/></g></g><g id="freepik--Coffee--inject-78" class="animable" style="transform-origin:428.09px 258.758px;animation:1s 1 forwards cubic-bezier(.36,-.01,.5,1.38) slideDown;animation-delay:0s"><g id="freepik--coffee--inject-78" class="animable" style="transform-origin:428.09px 258.758px"><path d="M457 242.06c-16.32-6-42.35-6-58.13 0s-15.77 15.76 0 21.77 41.81 6 58.13 0 16.27-15.76 0-21.77z" style="fill:#733232;transform-origin:428.13px 252.947px" id="ely5mpfya014m" class="animable"/><path d="m470 222.28-83.72.09 6.29 98.63h.08c.4 3.59 3.75 7.14 10.15 9.88 13.64 5.85 36.12 5.85 50.23 0 6.61-2.75 10.08-6.29 10.49-9.88h.08z" style="fill:#fafafa;transform-origin:428.14px 278.774px" id="el7xquo5m9jek" class="animable"/><path d="m386.23 222.37 1.29 20a37.38 37.38 0 0 0 7 3.75c18.11 7.5 48 7.49 66.69 0 .81-.33 1.49-.68 2.22-1a42.9 42.9 0 0 0 5.25-3l1.28-19.9z" style="fill:#ebebeb;transform-origin:428.095px 236.981px" id="elffttlmr4e37" class="animable"/><path d="M475.25 225.2v-15.08h-9.76a43.14 43.14 0 0 0-4.29-2c-18.73-7.5-48.58-7.5-66.69 0a44.92 44.92 0 0 0-4.1 2h-9.48v15.08c0 4.91 4.53 9.83 13.58 13.58 18.11 7.49 48 7.49 66.69 0 9.37-3.78 14.05-8.67 14.05-13.58z" style="fill:#f44336;transform-origin:428.09px 223.446px" id="elj0zqfrm2mf" class="animable"/><g style="opacity:.5;transform-origin:428.09px 223.446px" class="animable" id="el9fhg609qsdf"><path d="M475.25 225.2v-15.08h-9.76a43.14 43.14 0 0 0-4.29-2c-18.73-7.5-48.58-7.5-66.69 0a44.92 44.92 0 0 0-4.1 2h-9.48v15.08c0 4.91 4.53 9.83 13.58 13.58 18.11 7.49 48 7.49 66.69 0 9.37-3.78 14.05-8.67 14.05-13.58z" id="elicg21pmqh7r" class="animable" style="transform-origin:428.09px 223.446px"/></g><path d="M461.2 196.54c-18.73-7.49-48.58-7.49-66.69 0s-18.1 19.66 0 27.15 48 7.5 66.69 0 18.73-19.69 0-27.15z" style="fill:#f44336;transform-origin:428.082px 210.117px" id="elmfrmes3p33r" class="animable"/><g style="opacity:.2;transform-origin:428.082px 210.117px" class="animable" id="elbi5q8x1evb"><path d="M461.2 196.54c-18.73-7.49-48.58-7.49-66.69 0s-18.1 19.66 0 27.15 48 7.5 66.69 0 18.73-19.69 0-27.15z" id="el721ej71vwnp" class="animable" style="transform-origin:428.082px 210.117px"/></g><path d="M455.38 197.76c-15.43-5.92-40.05-5.92-55 0s-14.92 15.53 0 21.46 39.54 5.92 55 0 15.44-15.53 0-21.46z" style="fill:#f44336;transform-origin:428.073px 208.492px" id="eljgxnrbrn94n" class="animable"/><g style="opacity:.5;transform-origin:428.073px 208.492px" class="animable" id="el0g710p71qlea"><path d="M455.38 197.76c-15.43-5.92-40.05-5.92-55 0s-14.92 15.53 0 21.46 39.54 5.92 55 0 15.44-15.53 0-21.46z" id="el2lno81ub019" class="animable" style="transform-origin:428.073px 208.492px"/></g><path style="fill:#f44336;transform-origin:428.08px 200.275px" id="elx99xag1ah6l" class="animable" d="m466.61 206.49-3.02-12.43h-71.01l-3.03 12.43h77.06z"/><g style="opacity:.5;transform-origin:428.08px 200.275px" class="animable" id="elg5dd46rwhdc"><path id="elcr4cnvjsux" class="animable" style="transform-origin:428.08px 200.275px" d="m466.61 206.49-3.02-12.43h-71.01l-3.03 12.43h77.06z"/></g><path d="M453.16 186.11c-14.18-5.15-36.79-5.15-50.49 0s-13.71 13.52 0 18.67 36.31 5.16 50.49 0 14.18-13.51 0-18.67z" style="fill:#f44336;transform-origin:428.093px 195.447px" id="elx9xs0ibjod" class="animable"/><g style="opacity:.2;transform-origin:428.093px 195.447px" class="animable" id="elftpsbq1fxd9"><path d="M453.16 186.11c-14.18-5.15-36.79-5.15-50.49 0s-13.71 13.52 0 18.67 36.31 5.16 50.49 0 14.18-13.51 0-18.67z" id="elg30lr21j8ds" class="animable" style="transform-origin:428.093px 195.447px"/></g><path d="M458.88 195.46c0 .2-.4.86-1.57 1.77a23 23 0 0 1-5.82 2.94c-6.26 2.26-14.92 3.58-23.75 3.58s-17.35-1.3-23.36-3.55a20.56 20.56 0 0 1-5.62-3c-1.15-.93-1.47-1.62-1.47-1.79 0-.35 1.23-2.53 7.09-4.74s14.53-3.56 23.36-3.56 17.49 1.3 23.75 3.59c5.89 2.16 7.36 4.3 7.39 4.76z" style="fill:#f44336;transform-origin:428.085px 195.43px" id="elhnu54cnby0s" class="animable"/><g style="opacity:.5;transform-origin:428.085px 195.43px" class="animable" id="elzgb2lsraso9"><path d="M458.88 195.46c0 .2-.4.86-1.57 1.77a23 23 0 0 1-5.82 2.94c-6.26 2.26-14.92 3.58-23.75 3.58s-17.35-1.3-23.36-3.55a20.56 20.56 0 0 1-5.62-3c-1.15-.93-1.47-1.62-1.47-1.79 0-.35 1.23-2.53 7.09-4.74s14.53-3.56 23.36-3.56 17.49 1.3 23.75 3.59c5.89 2.16 7.36 4.3 7.39 4.76z" id="elke0j56h2zn" class="animable" style="transform-origin:428.085px 195.43px"/></g><path d="M457.31 197.23a23 23 0 0 1-5.82 2.94c-6.26 2.26-14.92 3.58-23.75 3.58s-17.35-1.3-23.36-3.55a20.56 20.56 0 0 1-5.62-3 20 20 0 0 1 5.62-3c6-2.26 14.53-3.56 23.36-3.56s17.49 1.3 23.75 3.58a22.28 22.28 0 0 1 5.82 3.01z" style="fill:#f44336;transform-origin:428.035px 197.195px" id="elk7iymgs8k6" class="animable"/><g style="opacity:.5;transform-origin:444.966px 198.62px" class="animable" id="eldvn61hw13qn"><path d="M443.1 197.55c2.06-1.17 4.58-1.65 5.61-1.07s.19 2-1.87 3.2-4.58 1.66-5.61 1.07-.23-2.03 1.87-3.2z" id="eledpsgwl7wbi" class="animable" style="transform-origin:444.966px 198.62px"/></g><path d="M389.37 289.14c0 3.71 3.72 7.42 11.15 10.25 14.86 5.66 39.38 5.66 54.76 0 7.67-2.82 11.52-6.53 11.53-10.23l2.38-36.22c0 3.94-4.08 7.88-12.24 10.89-16.32 6-42.35 6-58.13 0-7.89-3-11.83-6.95-11.83-10.89z" style="fill:#b16668;transform-origin:428.09px 278.288px" id="el84rs00g0zsp" class="animable"/><path d="M414.92 291.28c-1.38-1.86-2.14-4.14-3.26-6.15a18.2 18.2 0 0 0-9.47-8.34 1.18 1.18 0 0 0-1.47.54c-2.06 4.19-.8 10.06 3.46 14.32s10 5.53 14.22 3.56c.24-.11.3-.58.11-.69a11.79 11.79 0 0 1-3.59-3.24z" style="fill:#733232;transform-origin:409.187px 286.412px" id="el1jr2cyopy3c" class="animable"/><path d="M404.46 275.65a19.66 19.66 0 0 1 6 3.67 18.08 18.08 0 0 1 4.33 5.91c1.59 3.38 3.1 5.47 5.43 7.21a1.16 1.16 0 0 0 1.63-.25c2.79-4.22 1.68-10.67-2.91-15.26-4.35-4.36-10.39-5.61-14.6-3.36a1.16 1.16 0 0 0 .12 2.08z" style="fill:#733232;transform-origin:413.558px 282.57px" id="elbjfjxa41167" class="animable"/></g></g><g id="freepik--speech-bubbles--inject-78" class="animable" style="transform-origin:357.063px 113.349px;animation:1s 1 forwards cubic-bezier(.36,-.01,.5,1.38) slideLeft,1.5s Infinite linear floating;animation-delay:0s,1s"><g id="freepik--speach-bubble--inject-78" class="animable" style="transform-origin:357.067px 79.7537px"><path d="M349.33 73.94V63.72L340.7 63a.6.6 0 0 0-.36.07L331.73 68a.63.63 0 0 0-.14 1l9.15 9.91z" style="fill:#f44336;transform-origin:340.367px 70.9529px" id="elpvmzktjyjdp" class="animable"/><path d="m340.74 78.85-9.15-9.91a.63.63 0 0 1 .52-1.06l8.63.75z" style="fill:#f44336;transform-origin:336.079px 73.3634px" id="elz0a90bef3rq" class="animable"/><path d="m349.33 63.72-8.59 4.91-8.63-.75a.73.73 0 0 0-.3 0c.69-.41 8.22-4.71 8.53-4.88a.54.54 0 0 1 .36-.07z" style="fill:#f44336;transform-origin:340.57px 65.7768px" id="el4gik3rfq21a" class="animable"/><path d="m349.33 63.72-8.59 4.91-8.63-.75a.73.73 0 0 0-.3 0c.69-.41 8.22-4.71 8.53-4.88a.54.54 0 0 1 .36-.07z" style="fill:#fff;opacity:.5;transform-origin:340.57px 65.7768px" class="animable" id="elv9dmfx1jsk9"/><path d="M340.75 57.1a6.87 6.87 0 0 1 3.12-5.39l2.53-1.47a6.88 6.88 0 0 1 6.22 0l27 15.59a6.89 6.89 0 0 1 3.11 5.39v31.19a6.86 6.86 0 0 1-3.11 5.39l-2.53 1.46a6.84 6.84 0 0 1-6.23 0l-8-4.6-10.36-6-8.66-5a6.87 6.87 0 0 1-3.12-5.38z" style="fill:#f44336;transform-origin:361.725px 79.7537px" id="elr61pfwno6uj" class="animable"/><path d="M366.65 84.43A14.13 14.13 0 0 0 365.5 79a9.45 9.45 0 0 0-3.5-4.46c-2.36-1.39-4.33 1.44-4.64 4.77-.28-3.68-2.22-8.81-4.59-10.19a2.58 2.58 0 0 0-3.48.34 6.17 6.17 0 0 0-1.19 4c0 5.64 3.37 10.76 6.2 16.14l3 5.65 3-2.11c2.9-1.96 6.32-3.07 6.35-8.71z" style="fill:#fafafa;transform-origin:357.37px 81.9242px" id="elqv2h1y86mme" class="animable"/><path d="M382.73 102.41a6.86 6.86 0 0 1-3.11 5.39l-2.53 1.46a6.92 6.92 0 0 1-5.69.25c1.46.56 2.58-.27 2.58-2V76.28a6.43 6.43 0 0 0-.91-3.07l8.75-5a6.36 6.36 0 0 1 .91 3.06z" style="opacity:.2;transform-origin:377.065px 89.1071px" class="animable" id="elzz1x48k4r2"/><path d="M340.86 56.21c.36-1.32 1.56-1.74 3-.91l27 15.59a6.29 6.29 0 0 1 2.19 2.32l8.75-5a6.29 6.29 0 0 0-2.19-2.32l-27-15.59a6.91 6.91 0 0 0-6.23 0l-2.54 1.46a6.82 6.82 0 0 0-2.98 4.45z" style="fill:#fff;opacity:.5;transform-origin:361.33px 61.384px" class="animable" id="elb7sm1sxd0yr"/></g><g id="freepik--speach-bubble--inject-78" class="animable" style="transform-origin:357.063px 146.949px"><path d="M349.33 141.14v-10.22l-8.63-.76a.6.6 0 0 0-.36.08l-8.61 4.92a.62.62 0 0 0-.14 1l9.15 9.92z" style="fill:#f44336;transform-origin:340.363px 138.119px" id="ellp001jqcle" class="animable"/><path d="m340.74 146.05-9.15-9.92a.63.63 0 0 1 .52-1.06l8.63.76z" style="fill:#f44336;transform-origin:336.079px 140.558px" id="elnv4ob7rx888" class="animable"/><path d="m349.33 130.91-8.59 4.92-8.63-.76a.73.73 0 0 0-.3.05c.69-.41 8.22-4.72 8.53-4.88a.6.6 0 0 1 .36-.08z" style="fill:#f44336;transform-origin:340.57px 132.994px" id="elji5sww5igj" class="animable"/><path d="m349.33 130.91-8.59 4.92-8.63-.76a.73.73 0 0 0-.3.05c.69-.41 8.22-4.72 8.53-4.88a.6.6 0 0 1 .36-.08z" style="fill:#fff;opacity:.5;transform-origin:340.57px 132.994px" class="animable" id="elfqpx91adnbf"/><path d="M340.75 124.29a6.89 6.89 0 0 1 3.12-5.39l2.53-1.46a6.88 6.88 0 0 1 6.22 0l27 15.59a6.86 6.86 0 0 1 3.11 5.39v31.19a6.88 6.88 0 0 1-3.11 5.39l-2.53 1.46a6.91 6.91 0 0 1-6.23 0l-8-4.6-10.36-6-8.66-5a6.87 6.87 0 0 1-3.12-5.39z" style="fill:#f44336;transform-origin:361.725px 146.949px" id="elqs4ik6ra3d" class="animable"/><path d="m356.39 136.4-2.38 5a.56.56 0 0 1-.77.3l-5.32-2c-.84-.33-1.18.86-.57 2l3.85 7.3a2.37 2.37 0 0 1 .29 1.38l-.91 6.54c-.14 1 .74 2.4 1.5 2.31l4.75-.59a1.17 1.17 0 0 1 1 .55l4.76 6.08c.75 1 1.63.62 1.49-.58l-.91-7.59a1.07 1.07 0 0 1 .3-1l3.84-2.78c.62-.44.28-2-.57-2.67l-5.31-4.1a2.45 2.45 0 0 1-.78-1.2l-2.37-7.79c-.42-1.33-1.51-1.96-1.89-1.16z" style="fill:#fafafa;transform-origin:357.333px 150.945px" id="eltywlo526hvp" class="animable"/><path d="M382.73 169.61a6.88 6.88 0 0 1-3.11 5.39l-2.53 1.46a7 7 0 0 1-5.69.25c1.46.55 2.58-.27 2.58-2.05v-31.19a6.36 6.36 0 0 0-.91-3.06l8.75-5.06a6.43 6.43 0 0 1 .91 3.07z" style="opacity:.2;transform-origin:377.065px 156.273px" class="animable" id="el07ugjvviybps"/><path d="M340.86 123.41c.36-1.32 1.56-1.74 3-.92l27 15.6a6.14 6.14 0 0 1 2.19 2.32l8.75-5a6.22 6.22 0 0 0-2.19-2.32l-27-15.6a6.91 6.91 0 0 0-6.23 0l-2.54 1.47a6.82 6.82 0 0 0-2.98 4.45z" style="fill:#fff;opacity:.5;transform-origin:361.33px 128.579px" class="animable" id="elnc0zkwiwbxn"/></g></g><g id="freepik--Character--inject-78" class="animable animator-active" style="transform-origin:293.984px 336.702px;animation:2s 1 forwards cubic-bezier(.36,-.01,.5,1.38) slideDown,1.5s Infinite linear floating;animation-delay:0s,2s"><g id="freepik--character--inject-78" class="animable" style="transform-origin:293.984px 336.702px"><path d="m242.9 335.93-24.18 6.42-4.83 1.28a1.3 1.3 0 0 1-1.52-.72 1.27 1.27 0 0 1 .12-1.33l3.42-4.42 15-19.48 4.8 7.35z" style="fill:#ed9b80;transform-origin:227.568px 330.677px" id="elbyqklzl8w9e" class="animable"/><path d="m235.76 325-19.65 15.06-3.75 2.86a1.27 1.27 0 0 1 .12-1.33l3.42-4.42 15-19.48z" style="fill:#ffbda7;transform-origin:223.993px 330.305px" id="eltx02b8woak" class="animable"/><path d="m218.72 342.35-4.83 1.28a1.3 1.3 0 0 1-1.52-.72 1.27 1.27 0 0 1 .12-1.33l3.42-4.42a5.21 5.21 0 0 0 .18 2.93 4.12 4.12 0 0 0 2.63 2.26z" style="fill:#37474f;transform-origin:215.478px 340.417px" id="elpvy1hvesat" class="animable"/><path d="m340.27 245-2.4 1.59-2.9 1.92L231 317.64a13.9 13.9 0 0 0 1.52 10.05c2.48 4.69 6.93 8.23 10.42 8.22l103.24-68.64 5.53-3.68c-3.71 2.19-15.13-16.37-11.44-18.59z" style="fill:#263238;transform-origin:291.181px 290.455px" id="elsb53myso979" class="animable"/><path d="m337.87 246.57-2.9 1.92L231 317.64a13.9 13.9 0 0 0 1.52 10.05l107-72.07z" style="fill:#37474f;transform-origin:285.086px 287.13px" id="elrr3jr1stl3r" class="animable"/><path d="m331.12 251-5.35 3.57c-1.58 1-.38 5 1.82 9 2.91 5.38 7.55 10.89 9.66 9.59l3.93-2.65 1.42-.94c-2.11 1.3-6.76-4.21-9.67-9.59-2.1-3.88-3.29-7.71-2-8.86a.31.31 0 0 1 .19-.12z" style="fill:#f0f0f0;transform-origin:333.824px 262.176px" id="elzy7uzhzfd5" class="animable"/><path d="M332.93 260c-2.1-3.88-3.29-7.71-2-8.86a.31.31 0 0 1 .14-.11l-5.35 3.57c-1.58 1-.38 5 1.82 9l5.34-3.59z" style="fill:#fafafa;transform-origin:328.964px 257.315px" id="eltd9172u5qt" class="animable"/><path d="M329.79 251.92c-3.68 2.28 7.79 20.86 11.48 18.58l5.37-3.56c-3.69 2.28-15.16-16.3-11.48-18.57z" style="fill:#f44336;transform-origin:337.856px 259.532px" id="elk80eoht117k" class="animable"/><path d="m340.27 245-5.3 3.51c-3.63 2.21 7.27 20.25 11.17 18.78a.72.72 0 0 0 .22-.1l5.31-3.58c-3.67 2.17-15.09-16.39-11.4-18.61z" style="fill:#f0f0f0;transform-origin:342.955px 256.188px" id="ely631zhmjdkq" class="animable"/><path d="M362.74 230.07 340.27 245c-1.58 1-.41 4.89 1.75 8.92 2.89 5.39 7.53 11 9.65 9.69l21.61-14.34c5.32-2.93 1.16-13.91-4.33-18.08-2.01-1.6-4.22-2.19-6.21-1.12z" style="fill:#ed9b80;transform-origin:357.642px 246.666px" id="el3817w6zdf0y" class="animable"/><path d="M362.74 230.07 340.27 245c-1.58 1-.41 4.89 1.75 8.92l22.65-14.31s-2.68-5.57-1.5-7.8 3.41-2 5.81-.63c-2.04-1.59-4.25-2.18-6.24-1.11z" style="fill:#ffbda7;transform-origin:354.26px 241.724px" id="eled1ww5bx1tp" class="animable"/><path d="m335.16 248.37-5.37 3.55c-1.57 1-.37 4.94 1.81 9l5.35-3.6c-2.17-4.04-3.36-7.98-1.79-8.95z" style="fill:#fff;opacity:.4;transform-origin:333.012px 254.645px" class="animable" id="elpfxq7cmrx08"/><path d="m340.27 245-5.3 3.51c-1.58 1-.41 4.92 1.75 9l5.3-3.56c-2.15-4.08-3.33-8.02-1.75-8.95z" style="fill:#fafafa;transform-origin:338.13px 251.255px" id="elno3a7zd2r2n" class="animable"/><path d="M307 429.35a39.23 39.23 0 0 1 1 4c.29 1.51.69 4 .15 5.14s-2.59 1.83-5.77 1.76c-2.06 0-5.28 1.31-7.49 2.51a11.42 11.42 0 0 1-7.14.9c-2.82-.37-5.73-2-6.17-3.23s.15-1.73 6.85-4.48c.06 0 7.06-3.08 10.33-6.59z" style="fill:#263238;transform-origin:294.943px 436.613px" id="el9w2wyqa9rsi" class="animable"/><path d="m299.15 421-.43 6.09a6.19 6.19 0 0 1-2.5 4.55 47.19 47.19 0 0 1-7.8 4.41L286 437c-.18.64.07 1.64 3 2.13 4.52.75 14.95-6.53 14.95-6.53 1.74-1.09 3-2.42 3-3.27a67.89 67.89 0 0 1 1-9.13z" style="fill:#ffa8a7;transform-origin:296.953px 429.692px" id="el01lg49y353tw" class="animable"/><path d="m343.09 414.21-2.68-6.21 6.74-3.74 3.15 7.62c1 1.69 2.49 1.83 3.16 2.74s-1.14 13.25-3.41 16.63-7.69.72-8.56-.22 3.49-2.16 3.64-3a66 66 0 0 0-.47-8.23 15.32 15.32 0 0 0-1.57-5.59z" style="fill:#ffa8a7;transform-origin:347.006px 418.587px" id="elpr4jlfabg7n" class="animable"/><path d="M351.55 413.1c-.71 1.18-.74 3.53-1.1 6.87s-.7 8.65-2.59 10.06c-2.2 1.63-6.5.48-4.25-.81.62-.35.71-.49 1.06-.7.75-.46.48-.86.48-.86a16.43 16.43 0 0 1-3.18 1.75 3.54 3.54 0 0 0-2.49 3.63 2.92 2.92 0 0 0 1.71 1.84 12.8 12.8 0 0 0 5.86.09c4.07-.88 6.38-2.55 6.87-5.83.6-4 2.5-8.62 3.1-10.95.73-2.81-2.9-5.3-5.47-5.09z" style="fill:#263238;transform-origin:348.293px 424.177px" id="ellj82sxkw2fs" class="animable"/><path d="M305.29 324.38s14.58 41 15.89 45.49a48.48 48.48 0 0 0 4.21 10.72c1.56 2.92 17.7 33.62 17.7 33.62 5.09-.44 6.6-3.85 6.6-3.85s-6.49-27.47-8-32.43a19.92 19.92 0 0 0-4.61-8.31l-2.95-30.87c-.57-5.59-1.3-9.58-7.65-20.24l-4-5.05z" style="fill:#ffa8a7;transform-origin:327.49px 363.835px" id="elyqnpw5i7zq" class="animable"/><path d="M313.19 321.51c3.33 5.89 6.88 11.08 6.92 17.53.06 11.66-6.65 28-8.29 37.88a27 27 0 0 1 .9 10.94c-.6 4.09-5.38 36.4-5.38 36.4s-4.61 2.62-8.44.28c0 0-2.62-46.12-2.36-64s2.65-43.07 2.65-43.07z" style="fill:#ffa8a7;transform-origin:308.316px 371.491px" id="eloz2dyre8vwo" class="animable"/><path style="fill:#ffa8a7;transform-origin:311.1px 279.205px" id="elfe1w3wu0ti8" class="animable" d="m305.57 274.67 1.14 10.06 9.92 1.15-1.43-13.35-9.63 2.14z"/><path d="M306.28 250.25c-2.41 1.05-6.89.3-8.46 11.48-1.23 8.81.36 11.83 1.48 13.06.76.84 5.66 1.61 7.89 1.07 2.79-.66 8.9-3.19 12-7.55 3.62-5.13 4.77-12.22 1.19-15.27-5.06-4.29-12.06-3.67-14.1-2.79z" style="fill:#ffa8a7;transform-origin:309.965px 262.827px" id="elafx9ezmudod" class="animable"/><path d="M307.41 274.42a32 32 0 0 1-7.09.84 17.61 17.61 0 0 0 5.4.72c1.83-.9 1.69-1.56 1.69-1.56z" style="fill:#f28f8f;transform-origin:303.866px 275.202px" id="eleos4zw6j4xs" class="animable"/><path d="M298 261.25s-2.64 3.47-2.36 3.87a5.85 5.85 0 0 0 1.79.91z" style="fill:#f28f8f;transform-origin:296.81px 263.64px" id="el0r513nuhnwgr" class="animable"/><path d="M300.35 246.61c3.41-3 10.46-4.3 16.6-.37a7.35 7.35 0 0 1 5.27 3.14 2 2 0 0 1 .11-1.26 2.17 2.17 0 0 1 2.84-1.14l-1.11 2.6a2.08 2.08 0 0 1 .67-.32 2.15 2.15 0 0 1 2.66 1.49l-3.22.91c1.5 1.24 3.22 6.26 2.73 9.43-1.16 7.36-4.81 9.11-11.4 14.28l-2.07.32c-3.11 0-5.58-3.2-6.26-4.29a5.73 5.73 0 0 1-.82-2.78 1.59 1.59 0 0 0 1.76.6 4.25 4.25 0 0 0 2.08-1.24c1.9-2.09 1.28-5.75-.6-6.26a2.79 2.79 0 0 0-3 .84l-.62 1-.44 2-.16.77a2.14 2.14 0 0 1-1.66-2.55 2.3 2.3 0 0 1 .19-.54l-.24-.35c-7.88-3.96-6.84-13.14-3.31-16.28z" style="fill:#f44336;transform-origin:312.537px 259.74px" id="elot4r37pz15" class="animable"/><path d="M300.35 246.61c3.41-3 10.46-4.3 16.6-.37a7.35 7.35 0 0 1 5.27 3.14 2 2 0 0 1 .11-1.26 2.17 2.17 0 0 1 2.84-1.14l-1.11 2.6a2.08 2.08 0 0 1 .67-.32 2.15 2.15 0 0 1 2.66 1.49l-3.22.91c1.5 1.24 3.22 6.26 2.73 9.43-1.16 7.36-4.81 9.11-11.4 14.28l-2.07.32c-3.11 0-5.58-3.2-6.26-4.29a5.73 5.73 0 0 1-.82-2.78 1.59 1.59 0 0 0 1.76.6 4.25 4.25 0 0 0 2.08-1.24c1.9-2.09 1.28-5.75-.6-6.26a2.79 2.79 0 0 0-3 .84l-.62 1-.44 2-.16.77a2.14 2.14 0 0 1-1.66-2.55 2.3 2.3 0 0 1 .19-.54l-.24-.35c-7.88-3.96-6.84-13.14-3.31-16.28z" style="opacity:.5;transform-origin:312.537px 259.74px" class="animable" id="el3g35x2eaiy9"/><path d="M321.68 279.25c3 .19 6 3.27 6.23 6.66s-4 14.35-4 14.35z" style="fill:#ffa8a7;transform-origin:324.8px 289.755px" id="elnz948rv13y" class="animable"/><path d="M322.53 310.4c1.15-4.14 4-8.65 4-16.13a25.77 25.77 0 0 0-4.84-15l-5.71.08s-.11 1.39-3 1.95a12.78 12.78 0 0 1-6.66-.29c-.54.06-3.58.16-3.58.16l-7.23 12.66a7.79 7.79 0 0 0-.21 8.8 10.65 10.65 0 0 0 2.88 3.07c.67 3.07 1.74 6.21 1.74 6.21 11.37 2.93 17.8 3.46 22.61-1.51z" style="fill:#f44336;transform-origin:310.285px 296.699px" id="eljfhlb103m4p" class="animable"/><path d="M322.53 310.4c1.15-4.14 4-8.65 4-16.13a25.77 25.77 0 0 0-4.84-15l-5.71.08s-.11 1.39-3 1.95a12.78 12.78 0 0 1-6.66-.29c-.54.06-3.58.16-3.58.16l-7.23 12.66a7.79 7.79 0 0 0-.21 8.8 10.65 10.65 0 0 0 2.88 3.07c.67 3.07 1.74 6.21 1.74 6.21 11.37 2.93 17.8 3.46 22.61-1.51z" style="opacity:.3;transform-origin:310.285px 296.699px" class="animable" id="ellvu5y8w655"/><path d="M299.88 311.86v3.36s-11.2 15.49-13.26 34.45c0 0 9 11.36 30.17 8.28 24.42-3.55 27.21-17.38 27.21-17.38s-5.86-17.09-21.47-27.11v-3.06z" style="fill:#f44336;transform-origin:315.31px 334.44px" id="elynibi0dog5n" class="animable"/><path d="M299.88 311.86v3.36s-11.2 15.49-13.26 34.45c0 0 9 11.36 30.17 8.28 24.42-3.55 27.21-17.38 27.21-17.38s-5.86-17.09-21.47-27.11v-3.06z" style="opacity:.3;transform-origin:315.31px 334.44px" class="animable" id="elazfq8z9f6ww"/><path d="M322.53 310.4s-1.32 3-10 3.49c-3.49.21-10.23-.43-12.66-2v3.36s3.37 2.63 13.41 2.08c9.22-.5 9.24-3.84 9.24-3.84z" style="fill:#f44336;transform-origin:311.2px 313.903px" id="elsgqvzo2sud" class="animable"/><path d="M302.84 281.16c-8.8.28-8 2.19-12.75 10-2.66 4.38-6.65 12.48-8.75 16.63-4.48 1.91-14.48 2.84-18.49 1.88a3.22 3.22 0 0 1-2-1.31c-1.24-1.83-2.51-2.11-4-3.44-1.18-1-1.51-1.94-1.86-1.78a1.78 1.78 0 0 0-.7 2.32 8.89 8.89 0 0 0 1.31 2.18 18.5 18.5 0 0 1-4.45-2.49c-3.28-2.43-5.23-2.45-5 2.75.12 3.26 2.25 5.77 9.55 7.89a59.61 59.61 0 0 0 8.18 1.92 78.14 78.14 0 0 0 21-.9c.64-.13 1.41-.85 3.26-2.68 2.88-2.84 10.49-15.59 10.49-15.59 6.01-3.23 5.28-12.99 4.21-17.38z" style="fill:#ffa8a7;transform-origin:274.848px 299.601px" id="elz41es38vch" class="animable"/></g></g><defs><filter id="active" height="200%"><feMorphology in="SourceAlpha" result="DILATED" operator="dilate" radius="2"/><feFlood flood-color="#32DFEC" flood-opacity="1" result="PINK"/><feComposite in="PINK" in2="DILATED" operator="in" result="OUTLINE"/><feMerge><feMergeNode in="OUTLINE"/><feMergeNode in="SourceGraphic"/></feMerge></filter><filter id="hover" height="200%"><feMorphology in="SourceAlpha" result="DILATED" operator="dilate" radius="2"/><feFlood flood-color="red" flood-opacity=".5" result="PINK"/><feComposite in="PINK" in2="DILATED" operator="in" result="OUTLINE"/><feMerge><feMergeNode in="OUTLINE"/><feMergeNode in="SourceGraphic"/></feMerge><feColorMatrix values="0 0 0 0 0 0 1 0 0 0 0 0 0 0 0 0 0 0 1 0"/></filter></defs></svg>